<?xml version="1.0" standalone="no"?>
<!DOCTYPE svg PUBLIC "-//W3C//DTD SVG 20010904//EN"
 "http://www.w3.org/TR/2001/REC-SVG-20010904/DTD/svg10.dtd">
<svg version="1.0" xmlns="http://www.w3.org/2000/svg"
 width="1280.000000pt" height="640.000000pt" viewBox="0 0 1280.000000 640.000000"
 preserveAspectRatio="xMidYMid meet">
<metadata>
Created by potrace 1.15, written by Peter Selinger 2001-2017
</metadata>
<g transform="translate(0.000000,640.000000) scale(0.100000,-0.100000)"
fill="#000000" stroke="none">
<path d="M4713 6163 c-24 -2 -43 -7 -43 -11 0 -4 -62 -6 -137 -5 -80 2 -130
-1 -118 -5 28 -13 -52 -22 -123 -15 -42 5 -53 3 -47 -6 5 -10 -4 -11 -40 -5
-35 5 -46 4 -41 -5 4 -6 2 -11 -3 -11 -6 0 -11 5 -11 11 0 9 -36 10 -134 5
-87 -5 -135 -3 -138 3 -9 27 -632 38 -723 13 -22 -6 -60 -11 -85 -11 -70 1
-248 -15 -256 -23 -4 -5 4 -8 19 -8 14 0 29 -4 32 -10 3 -5 17 -10 30 -10 13
0 27 -5 30 -11 9 -13 -54 -3 -110 18 -40 15 -131 10 -120 -6 2 -5 -9 -11 -25
-15 -17 -3 -30 -9 -30 -14 0 -11 59 -32 74 -26 8 3 16 -1 19 -9 10 -26 149
-44 183 -25 5 3 23 8 39 11 17 4 24 4 17 1 -6 -3 -10 -10 -6 -15 3 -5 -2 -9
-10 -9 -22 0 -20 -20 2 -21 27 -2 -57 -19 -118 -24 -30 -2 -83 0 -117 5 -65
11 -114 4 -77 -11 10 -4 42 -8 69 -8 57 -1 71 -8 76 -36 4 -19 13 -20 214 -22
196 -3 252 3 231 24 -4 4 -83 8 -176 8 -155 0 -194 5 -177 21 5 5 111 7 327 4
39 0 80 7 88 15 3 3 -4 5 -16 5 -12 0 -22 5 -22 10 0 6 7 10 15 10 8 0 15 5
15 10 0 6 19 10 43 10 43 1 84 21 73 38 -3 6 20 13 57 17 34 4 87 15 119 25
31 10 82 22 113 25 38 5 52 10 44 16 -10 6 -7 9 11 9 14 0 49 3 78 6 44 6 52
4 52 -10 0 -13 -10 -16 -51 -16 -54 0 -138 -17 -154 -31 -5 -5 9 -9 33 -9 42
0 56 -13 26 -24 -9 -3 -32 -6 -52 -6 -51 0 -195 -21 -206 -31 -4 -4 14 -11 40
-14 66 -10 90 -24 44 -26 l-35 -1 30 -7 c17 -4 40 -13 53 -20 15 -8 54 -10
125 -7 113 6 233 -8 254 -30 8 -8 21 -14 28 -14 7 0 31 -18 53 -39 36 -36 38
-41 23 -55 -14 -15 -14 -18 -1 -26 8 -5 22 -7 30 -4 25 10 60 13 55 4 -3 -4
11 -11 30 -14 19 -4 35 -11 35 -15 0 -5 -18 -5 -40 0 -61 14 -89 15 -77 2 4
-3 -1 -12 -10 -18 -15 -11 -15 -13 6 -24 24 -13 81 -6 81 10 0 15 27 10 34 -7
11 -28 7 -34 -22 -34 -17 0 -37 -10 -50 -23 -27 -28 -28 -37 -4 -37 15 0 15
-2 2 -10 -13 -9 -11 -14 13 -31 15 -11 27 -27 27 -35 0 -11 7 -13 28 -8 24 6
25 5 9 -8 -17 -12 -15 -16 26 -53 73 -66 80 -70 130 -71 27 0 52 -5 55 -11 4
-6 17 -13 28 -17 18 -5 26 0 45 31 13 21 23 45 21 53 -1 8 12 22 30 30 17 9
32 24 34 33 4 27 24 47 47 47 11 0 29 8 39 17 16 14 18 15 13 1 -6 -14 2 -13
61 3 37 10 77 27 88 37 22 20 56 36 69 33 24 -5 179 22 240 41 76 25 70 33
-23 38 -25 2 -35 5 -23 7 13 3 20 9 17 18 -4 10 1 12 18 8 13 -4 26 -10 29
-15 3 -5 25 -11 47 -13 35 -3 42 -1 42 14 0 9 -15 25 -32 34 -18 10 -23 15
-12 12 14 -4 24 0 28 10 3 8 0 15 -7 15 -22 0 17 20 41 20 13 0 22 6 22 15 0
9 10 16 28 16 26 2 26 2 2 6 -37 7 -49 23 -17 23 15 0 27 4 27 8 0 17 -25 32
-53 32 -16 0 -26 4 -22 10 10 17 76 12 92 -7 8 -10 11 -12 7 -4 -3 7 -1 17 7
22 20 12 5 21 -35 21 -23 0 -34 4 -29 10 4 7 -3 9 -20 6 -22 -4 -24 -3 -14 14
7 10 20 18 30 18 10 0 20 7 23 15 4 8 18 15 33 15 15 0 45 8 67 19 21 10 66
24 99 31 l60 13 -34 9 c-19 5 -62 7 -95 3 -34 -3 -86 -7 -117 -9 -30 -1 -68
-6 -84 -10 -26 -7 -27 -6 -14 10 13 16 10 17 -51 11 -40 -3 -57 -2 -45 3 11 5
37 9 57 9 58 1 57 21 -1 21 -27 0 -62 5 -77 11 -29 10 -345 20 -421 12z m-290
-50 c-7 -2 -21 -2 -30 0 -10 3 -4 5 12 5 17 0 24 -2 18 -5z m37 -3 c0 -5 -5
-10 -11 -10 -5 0 -7 5 -4 10 3 6 8 10 11 10 2 0 4 -4 4 -10z m-1464 -65 c3
-19 -15 -19 -39 0 -18 13 -17 14 5 17 27 4 31 2 34 -17z m132 0 c-8 -8 -48 8
-42 16 3 5 14 4 25 -2 12 -6 19 -12 17 -14z m39 9 c-3 -3 -12 -4 -19 -1 -8 3
-5 6 6 6 11 1 17 -2 13 -5z m2173 -8 c0 -2 -7 -7 -16 -10 -8 -3 -12 -2 -9 4 6
10 25 14 25 6z m-2280 -37 c0 -5 -17 -8 -37 -8 -31 2 -33 3 -10 6 15 2 25 9
22 14 -3 5 1 6 9 3 9 -3 16 -10 16 -15z m-25 -49 c7 -12 -2 -12 -30 0 -19 8
-19 9 2 9 12 1 25 -3 28 -9z m662 -6 c-3 -3 -12 -4 -19 -1 -8 3 -5 6 6 6 11 1
17 -2 13 -5z m1473 -169 c11 -13 10 -14 -4 -9 -9 3 -16 10 -16 15 0 13 6 11
20 -6z"/>
<path d="M9345 6083 c-33 -5 -115 -40 -115 -49 0 -4 26 -4 57 -1 32 3 52 2 44
-2 -21 -13 15 -23 109 -28 82 -5 86 -5 87 16 1 17 -4 21 -30 21 -34 0 -77 19
-47 21 8 0 -5 7 -30 15 -25 7 -45 13 -45 12 0 0 -13 -3 -30 -5z"/>
<path d="M7988 6073 c7 -3 16 -2 19 1 4 3 -2 6 -13 5 -11 0 -14 -3 -6 -6z"/>
<path d="M8250 6070 c-24 -8 -24 -8 5 -8 17 0 39 3 50 8 18 8 18 9 -5 8 -14 0
-36 -4 -50 -8z"/>
<path d="M9208 6073 c7 -3 16 -2 19 1 4 3 -2 6 -13 5 -11 0 -14 -3 -6 -6z"/>
<path d="M7640 6058 c0 -4 12 -6 27 -3 15 2 30 0 34 -6 4 -8 26 -7 70 4 l64
14 -97 0 c-54 0 -98 -4 -98 -9z"/>
<path d="M8031 6056 c12 -13 21 -14 40 -7 23 9 23 10 2 10 -12 1 -30 4 -40 7
-16 6 -17 5 -2 -10z"/>
<path d="M8110 6060 c0 -12 57 -12 85 0 15 6 6 9 -32 9 -29 1 -53 -3 -53 -9z"/>
<path d="M6698 6052 c-16 -2 -28 -7 -28 -11 0 -5 -21 -6 -47 -3 -41 4 -46 3
-39 -13 5 -15 4 -16 -9 -5 -9 7 -27 10 -46 6 -16 -3 -28 -2 -25 2 2 4 -18 5
-45 4 -27 -2 -49 -8 -49 -13 0 -5 7 -9 15 -9 8 0 15 -4 15 -9 0 -5 11 -12 25
-15 14 -4 34 -15 43 -24 10 -10 39 -24 64 -31 45 -13 48 -12 85 15 21 16 40
32 41 37 6 11 45 8 64 -7 10 -7 15 -16 11 -19 -7 -7 33 -11 77 -7 54 4 36 17
-58 40 -102 25 -146 46 -77 37 117 -17 179 -18 221 -6 24 7 44 17 44 20 0 9
-149 16 -161 8 -6 -3 -29 -3 -52 0 -23 3 -54 5 -69 3z m-133 -72 c-3 -5 -16
-10 -28 -10 -18 0 -19 2 -7 10 20 13 43 13 35 0z"/>
<path d="M2520 6040 c0 -5 12 -10 28 -10 21 0 24 2 12 10 -20 13 -40 13 -40 0z"/>
<path d="M2330 6011 c0 -6 15 -11 33 -12 30 -1 30 -1 7 -9 -19 -5 -8 -8 45
-13 39 -3 85 -8 103 -12 17 -4 32 -3 32 1 0 16 -42 36 -89 41 -25 3 -65 7 -88
10 -28 3 -43 1 -43 -6z"/>
<path d="M9555 5995 l-40 -24 41 -1 c65 0 164 12 164 21 0 7 -86 29 -113 29
-7 0 -30 -11 -52 -25z"/>
<path d="M2095 5990 c-39 -6 -39 -6 -10 -12 l30 -5 -27 -2 c-49 -2 -30 -21 21
-21 54 0 78 16 34 23 -22 3 -19 4 12 6 32 2 36 4 20 11 -23 10 -25 10 -80 0z"/>
<path d="M2580 5992 c0 -16 55 -34 115 -38 40 -2 49 -1 27 4 -18 4 -31 11 -30
17 2 5 -15 13 -37 17 -55 10 -75 9 -75 0z"/>
<path d="M2008 5963 c6 -2 18 -2 25 0 6 3 1 5 -13 5 -14 0 -19 -2 -12 -5z"/>
<path d="M2448 5963 c7 -3 16 -2 19 1 4 3 -2 6 -13 5 -11 0 -14 -3 -6 -6z"/>
<path d="M2315 5950 c3 -5 16 -10 28 -10 18 0 19 2 7 10 -20 13 -43 13 -35 0z"/>
<path d="M2835 5950 c3 -5 15 -10 26 -10 11 0 17 5 14 10 -3 6 -15 10 -26 10
-11 0 -17 -4 -14 -10z"/>
<path d="M9620 5951 c-14 -5 -34 -13 -45 -19 -33 -17 -127 -31 -186 -27 -31 2
-72 0 -90 -5 -19 -5 -72 -13 -118 -19 -46 -6 -89 -16 -97 -22 -7 -6 -18 -8
-24 -4 -5 3 -10 1 -10 -4 0 -6 6 -11 13 -12 6 0 3 -4 -8 -9 -11 -5 -59 -9
-106 -9 -47 -1 -89 -4 -92 -7 -11 -12 13 -44 33 -44 10 0 22 -4 25 -10 8 -12
-16 -13 -47 -1 -13 4 -47 11 -77 15 -46 6 -53 5 -43 -7 9 -11 6 -13 -18 -9
-32 5 -42 -13 -12 -21 11 -3 8 -5 -9 -6 -27 -1 -47 23 -28 34 11 7 3 25 -12
25 -5 0 -9 -7 -9 -15 0 -8 -8 -15 -17 -15 -10 0 -25 -5 -33 -10 -13 -8 -12
-11 5 -24 16 -12 17 -16 6 -29 -20 -25 -4 -37 47 -38 45 -2 45 -2 12 -8 -22
-4 -35 -12 -35 -22 0 -29 -62 -69 -107 -69 -17 0 -13 6 20 29 49 36 56 47 37
55 -10 3 -15 19 -15 45 0 22 -5 41 -12 44 -10 4 -10 7 0 18 20 21 14 39 -13
39 -14 0 -25 5 -25 10 0 6 -11 10 -25 10 -14 0 -25 -4 -25 -10 0 -5 -7 -10
-15 -10 -8 0 -19 -9 -24 -19 -6 -10 -25 -24 -42 -30 -25 -8 -29 -14 -21 -24 9
-10 8 -17 0 -25 -8 -8 0 -15 31 -28 29 -11 39 -20 32 -27 -7 -7 -19 -6 -38 1
-40 16 -150 40 -208 47 -27 3 -66 8 -85 11 -26 4 -31 3 -20 -5 8 -6 22 -11 31
-11 9 0 22 -6 28 -14 10 -12 8 -17 -10 -26 -16 -9 -23 -9 -29 0 -6 9 -28 9
-96 1 -59 -7 -90 -8 -92 -1 -4 11 -35 14 -45 3 -4 -3 -19 -8 -34 -9 -52 -6
-128 -29 -136 -41 -8 -14 -54 -17 -81 -7 -20 8 -11 24 15 24 23 0 25 15 3 24
-24 9 -91 7 -76 -2 7 -5 10 -16 7 -24 -4 -9 -1 -19 5 -23 8 -5 8 -10 0 -20 -8
-10 -20 -11 -41 -5 -17 5 -38 5 -47 1 -10 -5 -30 -14 -46 -20 -27 -11 -28 -12
-10 -26 18 -14 18 -14 -1 -14 -11 0 -40 4 -64 10 -50 11 -85 -5 -37 -17 15 -3
24 -10 19 -15 -11 -11 -92 13 -103 31 -4 7 -6 19 -3 26 2 6 -8 17 -24 23 -22
9 -15 9 37 3 149 -17 236 -3 212 34 -10 16 -166 63 -223 67 -25 2 -53 8 -63
14 -10 5 -41 8 -69 6 -46 -3 -49 -2 -27 8 l25 12 -35 8 c-19 5 -40 6 -47 4 -6
-2 -13 1 -15 7 -3 8 -11 9 -24 3 -10 -4 -23 -7 -28 -6 -4 1 -20 -6 -35 -15
l-26 -17 20 23 20 23 -20 -7 c-11 -4 -45 -11 -76 -16 -32 -4 -66 -13 -77 -19
-10 -5 -30 -8 -43 -6 -13 2 -42 -2 -64 -10 -22 -8 -33 -14 -26 -15 12 0 12 -3
3 -12 -8 -8 -18 -9 -34 -1 -24 11 -61 2 -73 -17 -5 -9 -2 -9 11 -2 11 5 28 6
39 1 12 -4 14 -8 6 -8 -22 -1 -90 -50 -133 -95 -21 -22 -38 -36 -38 -32 0 4
-16 -2 -35 -14 -19 -12 -39 -19 -44 -16 -5 3 -11 -1 -15 -9 -3 -8 -14 -15 -25
-15 -11 0 -36 -8 -55 -17 -27 -14 -36 -24 -36 -44 0 -14 5 -30 12 -37 9 -9 9
-12 0 -12 -7 0 -12 -5 -12 -11 0 -6 7 -9 15 -5 8 3 15 1 15 -3 0 -5 -6 -11
-12 -14 -15 -5 35 -27 62 -27 10 0 37 9 61 20 51 23 69 25 69 7 0 -7 14 -29
31 -50 l31 -38 -31 -12 c-31 -11 -42 -27 -18 -27 8 0 7 -4 -3 -10 -13 -9 -13
-10 0 -10 8 0 21 10 29 21 10 18 15 19 22 8 7 -12 13 -11 41 2 18 9 47 21 63
26 17 5 29 15 27 23 -6 27 8 59 30 66 12 3 29 13 37 22 13 13 13 16 -4 28 -10
8 -25 14 -33 14 -10 0 -12 7 -7 28 7 30 38 58 75 67 35 9 72 34 65 45 -10 16
39 40 82 40 78 0 67 -24 -35 -75 -37 -19 -52 -32 -48 -42 3 -8 6 -25 6 -37 0
-33 55 -57 106 -46 69 14 140 19 154 10 25 -15 2 -23 -76 -26 -84 -3 -114 -10
-114 -26 0 -5 8 -12 19 -15 13 -3 17 -11 14 -24 -8 -28 -20 -32 -45 -15 -12 9
-26 16 -30 16 -18 0 -38 -35 -38 -66 0 -27 -4 -34 -19 -34 -11 0 -23 -4 -26
-10 -8 -13 -42 -13 -47 1 -2 7 -29 4 -78 -9 -72 -19 -100 -19 -100 -2 0 5 -14
5 -31 0 -37 -11 -86 -3 -93 15 -3 8 2 11 15 8 10 -3 19 0 19 6 0 6 -8 11 -17
11 -16 1 -16 2 2 16 15 11 17 17 7 23 -7 4 -10 15 -6 25 6 15 3 15 -20 5 -14
-7 -26 -16 -26 -21 0 -4 -5 -8 -11 -8 -5 0 -7 6 -3 13 5 8 2 7 -9 -2 -17 -14
-19 -41 -4 -52 4 -3 9 -19 10 -35 2 -25 -2 -29 -23 -30 -74 -2 -82 -4 -87 -25
-4 -15 -8 -17 -14 -8 -5 9 -14 4 -33 -18 -16 -19 -40 -33 -61 -37 -19 -4 -35
-12 -35 -19 0 -22 -58 -47 -85 -37 -22 8 -25 7 -25 -11 0 -17 -6 -20 -32 -18
-18 1 -43 1 -55 0 -33 -2 -18 -28 21 -35 18 -4 45 -19 60 -35 25 -26 27 -34
21 -69 -3 -22 -12 -42 -18 -44 -7 -2 -59 -1 -117 2 -128 8 -139 3 -132 -56 2
-24 -1 -57 -8 -74 -10 -23 -10 -34 -1 -43 6 -6 11 -22 11 -35 0 -22 3 -24 33
-19 24 4 37 0 53 -16 20 -22 20 -22 1 -58 -12 -23 -33 -42 -58 -53 -43 -19
-75 -71 -65 -104 5 -15 -3 -28 -31 -51 -21 -17 -43 -31 -50 -31 -19 0 -93 -80
-93 -100 0 -9 -8 -24 -17 -33 -10 -9 -29 -36 -42 -61 -22 -39 -23 -47 -11 -61
13 -15 20 -52 21 -105 1 -29 -14 -75 -29 -92 -12 -15 -13 -20 -1 -34 7 -9 12
-29 11 -45 -2 -16 1 -29 7 -29 17 0 103 -93 117 -126 7 -17 32 -43 56 -59 24
-16 52 -37 63 -46 40 -35 77 -49 99 -37 36 19 99 27 138 17 36 -9 57 -5 143
31 29 12 91 19 114 13 11 -3 26 -18 33 -34 16 -36 24 -39 75 -30 31 6 45 4 62
-10 20 -16 22 -26 18 -71 -3 -29 -10 -65 -16 -80 -14 -37 -7 -53 51 -115 26
-28 48 -57 48 -63 0 -6 9 -32 21 -57 12 -26 23 -63 24 -82 2 -20 7 -51 11 -69
5 -26 2 -38 -15 -56 -38 -40 -68 -185 -41 -201 15 -9 84 -146 85 -169 3 -57
30 -148 50 -168 30 -31 88 -144 81 -157 -20 -31 43 -95 74 -76 16 10 52 17
105 19 120 6 168 28 234 104 22 26 52 58 65 72 27 28 39 62 38 101 0 23 6 29
44 44 34 13 44 22 45 41 1 13 2 30 3 37 1 6 -4 31 -12 55 -13 40 -13 44 4 57
11 7 36 29 58 49 21 20 46 36 56 36 18 0 69 45 71 64 1 6 1 47 -1 91 -1 57 -7
85 -18 98 -9 10 -17 38 -18 63 -1 24 -7 51 -14 59 -31 38 80 181 261 337 34
28 67 69 86 105 57 108 62 118 69 138 9 27 11 65 3 65 -3 0 -19 -4 -35 -9 -16
-6 -45 -12 -64 -15 -19 -3 -53 -10 -75 -15 -22 -6 -45 -11 -52 -11 -19 0 -52
41 -46 57 6 15 -37 58 -99 100 -23 16 -39 36 -43 55 -4 16 -20 44 -36 62 -17
20 -31 50 -35 77 -4 26 -17 55 -31 70 -13 15 -25 33 -26 40 -2 8 -15 36 -30
63 -15 27 -27 51 -27 54 0 3 -12 23 -26 44 -15 21 -24 41 -21 44 3 3 11 -7 19
-23 15 -32 48 -44 48 -17 0 11 18 -7 45 -44 25 -34 45 -66 45 -71 0 -5 11 -18
23 -28 30 -23 47 -55 47 -85 0 -13 14 -36 30 -53 44 -44 100 -131 100 -156 0
-29 22 -103 33 -110 5 -4 40 4 79 17 38 13 76 24 83 24 7 0 18 7 25 15 7 8 28
17 47 21 19 4 48 19 64 35 18 18 45 31 69 35 24 4 40 12 40 20 0 8 9 14 20 14
10 0 23 6 27 13 4 8 16 16 26 20 10 4 17 17 17 32 0 14 6 25 13 25 6 0 22 15
35 33 l23 32 -31 28 c-17 15 -38 27 -48 27 -26 0 -42 20 -42 52 0 15 -2 28 -5
28 -3 0 -22 -15 -41 -32 -23 -21 -50 -35 -75 -39 -43 -6 -55 3 -51 38 4 26
-16 41 -24 19 -8 -20 -24 -11 -24 14 0 10 -11 27 -24 37 -13 10 -31 33 -40 50
-15 31 -15 33 3 43 11 5 27 10 36 10 19 0 54 -38 55 -58 0 -7 8 -15 18 -19 9
-3 30 -15 45 -26 31 -21 105 -27 116 -9 9 15 27 2 35 -24 5 -18 19 -23 89 -31
45 -6 116 -8 157 -4 l75 6 49 -47 c26 -26 58 -49 70 -51 20 -4 20 -4 -1 -6
-31 -1 -29 -13 8 -40 38 -28 79 -22 79 11 0 16 3 19 11 11 6 -6 11 -31 11 -55
-1 -82 15 -132 99 -314 16 -34 29 -68 29 -76 0 -18 20 -38 37 -38 15 0 53 35
53 50 0 5 6 13 14 17 17 10 28 70 27 141 -1 46 1 55 19 59 11 3 20 9 20 14 0
5 9 9 20 9 11 0 20 7 20 15 0 8 4 15 9 15 4 0 30 20 57 45 26 25 53 45 59 45
17 0 35 22 35 42 0 10 8 18 18 19 9 1 26 2 37 3 11 1 30 3 42 4 12 1 29 9 37
18 19 18 36 10 36 -17 0 -11 15 -34 33 -52 17 -17 31 -35 29 -39 -1 -4 2 -8 7
-8 14 0 29 -53 21 -75 -4 -11 -6 -23 -3 -27 9 -16 51 -7 75 15 l25 23 12 -31
c6 -17 11 -38 11 -46 0 -8 7 -27 16 -44 16 -30 15 -135 -2 -178 -4 -11 -1 -17
7 -17 17 0 69 -72 69 -94 0 -39 33 -96 71 -120 58 -39 87 -34 54 10 -8 10 -15
35 -15 54 0 29 -8 44 -40 75 -23 22 -43 39 -45 38 -15 -9 -25 0 -25 22 0 14
-9 34 -20 45 -23 23 -25 45 -5 80 8 14 14 35 15 47 0 29 20 40 27 15 3 -12 16
-22 33 -26 19 -3 35 -16 44 -34 9 -17 27 -33 41 -36 20 -5 25 -13 25 -37 l0
-31 29 24 c17 13 30 28 30 34 1 6 13 14 29 18 50 11 66 31 65 84 -1 60 -12 82
-74 144 -27 27 -49 57 -49 67 0 10 16 34 35 54 28 29 44 37 70 37 28 0 35 -4
35 -19 0 -11 5 -23 10 -26 6 -3 10 3 10 13 0 18 9 23 60 37 31 8 50 18 50 27
0 7 5 6 14 -1 10 -8 16 -9 21 -1 3 5 18 10 33 10 31 1 152 92 152 115 0 13 16
37 46 69 20 21 35 56 29 66 -3 6 -16 10 -28 11 l-22 0 23 11 c25 12 30 49 8
67 -8 6 -19 24 -26 40 -6 16 -21 33 -32 38 -20 9 -20 10 13 41 18 17 46 34 61
38 16 3 28 9 28 13 0 13 -73 22 -84 11 -13 -13 -49 -13 -41 0 3 6 -5 14 -19
20 -14 5 -26 16 -26 24 0 9 6 13 13 11 6 -3 36 11 66 30 59 39 80 35 57 -10
-9 -16 -14 -31 -12 -32 2 -2 20 6 40 18 27 16 45 20 71 15 31 -6 33 -9 25 -30
-10 -28 -5 -36 26 -36 12 0 24 -7 28 -15 3 -8 2 -15 -2 -15 -4 0 -8 -20 -9
-45 -2 -37 1 -45 15 -45 10 0 22 4 28 9 5 5 20 11 34 13 21 2 26 9 28 40 3 30
-3 44 -32 76 -38 42 -38 44 17 72 15 7 27 21 27 30 0 10 17 29 38 42 30 20 41
23 60 15 39 -18 115 30 201 127 14 17 36 40 49 52 12 12 26 42 31 68 4 25 14
52 20 60 17 20 8 52 -20 75 -28 21 -42 22 -76 3 -19 -11 -23 -10 -23 3 0 18
-16 20 -23 3 -3 -8 -6 -6 -6 5 -1 11 -9 17 -26 17 -38 0 -30 13 19 33 24 10
52 27 62 38 9 10 21 19 26 19 4 0 32 16 62 35 52 35 54 36 162 36 60 1 114 5
120 10 15 12 96 0 88 -13 -4 -5 16 -7 48 -4 29 2 60 5 68 6 10 1 9 4 -5 9 -16
7 -11 13 38 44 46 30 67 37 106 37 40 0 49 -3 47 -17 -1 -20 11 -20 66 -1 20
7 39 21 41 30 3 10 14 18 25 18 37 0 1 -46 -62 -80 -32 -16 -69 -39 -82 -49
-14 -11 -41 -25 -61 -32 -49 -16 -83 -54 -83 -94 0 -28 25 -128 37 -148 7 -11
63 32 63 48 0 8 11 17 25 21 14 3 25 12 25 20 0 13 32 36 47 33 25 -4 36 2 26
12 -17 17 -4 39 23 39 25 0 32 14 14 25 -6 4 -8 16 -4 27 5 16 3 20 -9 15 -29
-11 -25 5 8 39 21 20 43 33 57 33 13 -1 31 2 41 6 11 4 17 3 17 -5 0 -9 4 -9
13 -2 20 17 83 25 106 13 17 -9 30 -7 68 13 67 33 200 68 234 61 16 -4 33 -4
39 0 13 8 -29 65 -49 66 -9 0 7 6 34 13 38 9 50 16 50 30 0 25 19 31 35 11 7
-8 27 -15 45 -15 18 0 46 -7 61 -15 47 -24 91 -29 108 -12 8 8 12 17 9 21 -4
3 7 6 24 6 17 0 36 6 42 14 9 11 6 16 -16 24 -44 17 -126 26 -118 13 11 -18
-6 -12 -23 8 -16 18 -76 41 -162 61 -138 33 -185 40 -263 40 -84 0 -88 -1 -82
-20 5 -16 2 -20 -17 -19 -13 1 -34 5 -48 9 -24 8 -24 8 -2 9 12 1 22 6 22 12
0 8 -11 9 -32 4 -18 -4 -73 -7 -122 -6 -64 1 -95 -2 -111 -13 -20 -13 -24 -13
-29 -1 -3 8 -14 15 -25 15 -11 0 -18 6 -17 17 2 25 -54 34 -171 28 -66 -4
-103 -3 -108 4 -3 6 -18 11 -32 11 -14 0 -31 6 -37 14 -12 15 -276 38 -334 29
-30 -5 -56 -23 -33 -23 6 0 11 -5 11 -11 0 -7 -9 -9 -22 -6 -12 4 -27 2 -33
-3 -7 -6 -24 -6 -41 -2 -45 13 -160 8 -178 -7 -18 -16 -71 -8 -100 14 -18 14
-18 15 -2 15 25 0 9 20 -17 21 -21 0 -21 1 -2 9 29 11 7 17 -92 24 -70 6 -83
4 -83 -9 0 -21 -104 -20 -178 1 -37 11 -76 15 -119 11 -57 -4 -63 -3 -63 14 0
13 -7 19 -22 19 -19 1 -17 3 10 15 19 8 32 20 30 26 -7 20 -108 41 -170 36
-36 -3 -58 -1 -58 5 0 6 -10 8 -23 6 -13 -2 -29 1 -35 9 -14 14 -71 16 -112 4z
m-50 -106 c11 -13 10 -14 -4 -9 -9 3 -16 10 -16 15 0 13 6 11 20 -6z m380 -4
c0 -5 8 -12 18 -14 9 -2 -5 -2 -32 1 -28 2 -51 0 -55 -6 -3 -6 -31 -13 -61
-16 -41 -4 -47 -3 -25 3 17 5 50 16 75 24 54 18 80 20 80 8z m-994 -116 c2
-29 -2 -31 -22 -11 -12 13 -12 16 3 25 10 6 18 11 18 11 0 0 1 -11 1 -25z
m-202 -83 c2 -4 1 -14 -5 -22 -7 -13 -9 -12 -9 2 0 9 -6 19 -12 21 -8 3 -7 6
4 6 9 1 19 -3 22 -7z m-254 -72 c13 -9 13 -10 0 -10 -8 0 -22 5 -30 10 -13 9
-13 10 0 10 8 0 22 -5 30 -10z m-1430 -152 c0 -14 -45 -38 -69 -37 -10 0 -7 4
7 9 12 5 22 14 22 19 0 6 7 8 15 5 8 -4 15 -1 15 5 0 6 2 11 5 11 3 0 5 -6 5
-12z m230 -40 c0 -12 -8 -10 -37 9 -23 15 -24 17 -7 24 18 7 44 -13 44 -33z
m-373 10 c-3 -8 -6 -5 -6 6 -1 11 2 17 5 13 3 -3 4 -12 1 -19z m248 -29 c0
-21 -52 -19 -71 2 -15 16 -16 22 -5 29 17 10 76 -14 76 -31z m-659 -58 c-8
-12 -46 -21 -46 -11 0 9 18 18 38 19 7 1 11 -3 8 -8z m874 -23 c0 -16 -20 -7
-30 12 -10 19 -10 20 9 8 12 -7 21 -16 21 -20z m2481 -131 c-6 -15 -16 -27
-22 -27 -7 0 -9 -3 -5 -7 9 -9 -123 -73 -148 -72 -20 1 -20 1 -1 6 37 9 132
76 156 111 25 37 36 31 20 -11z m-581 -147 c0 -5 -5 -10 -11 -10 -5 0 -7 5 -4
10 3 6 8 10 11 10 2 0 4 -4 4 -10z m-315 -80 c3 -6 -1 -7 -9 -4 -18 7 -21 14
-7 14 6 0 13 -4 16 -10z m-1600 -45 c-16 -8 -24 -14 -16 -15 11 0 10 -5 -4
-20 -10 -11 -22 -17 -26 -14 -5 3 -9 1 -9 -4 0 -5 15 -16 33 -23 54 -22 137
-79 137 -94 0 -26 -40 -38 -111 -33 -38 3 -76 11 -84 18 -8 7 -15 9 -15 4 0
-4 -5 -3 -12 4 -17 17 -66 14 -113 -6 -52 -23 -122 -16 -142 14 -12 19 -12 24
2 37 8 9 15 21 15 27 0 6 21 32 46 58 40 39 49 44 65 34 10 -7 29 -12 41 -12
21 0 21 0 2 -15 -17 -13 -17 -14 -1 -15 9 0 17 -7 17 -16 0 -12 6 -15 23 -9
12 4 34 9 50 12 15 3 30 10 34 16 4 6 -2 8 -15 5 -12 -3 -26 0 -32 7 -12 15 1
22 70 41 61 16 81 15 45 -1z m513 -19 c-2 -15 -11 -22 -31 -24 -16 -2 -31 -10
-34 -18 -3 -8 -12 -14 -20 -14 -9 0 -3 -12 18 -35 19 -19 39 -35 45 -35 7 0
10 -8 7 -20 -3 -11 0 -20 6 -20 6 0 11 5 11 10 0 16 18 12 39 -9 22 -22 8 -34
-28 -24 -16 4 -21 1 -21 -16 0 -11 5 -21 11 -21 5 0 8 -4 5 -9 -3 -5 1 -11 9
-15 9 -3 15 -18 15 -40 0 -26 -5 -35 -22 -40 -38 -10 -73 -7 -94 9 -10 8 -27
15 -38 15 -16 0 -18 5 -13 36 3 20 14 45 23 55 10 11 12 19 6 19 -16 0 -81 72
-82 89 0 8 -6 22 -14 30 -11 13 -12 20 -3 32 21 28 118 68 165 67 38 0 43 -3
40 -22z m290 -3 c-7 -9 -7 -17 2 -28 10 -11 9 -18 -3 -30 -8 -8 -17 -20 -19
-26 -5 -15 -75 -1 -82 18 -8 19 11 53 30 53 8 0 17 7 20 15 4 9 17 14 35 13
22 -2 26 -5 17 -15z m469 -6 c-12 -13 -26 -20 -31 -15 -6 5 -2 14 10 23 30 23
46 17 21 -8z m146 16 c-7 -2 -21 -2 -30 0 -10 3 -4 5 12 5 17 0 24 -2 18 -5z
m-2266 -51 c5 2 19 -7 29 -20 11 -12 48 -37 84 -55 56 -27 65 -36 68 -62 2
-18 18 -45 40 -68 20 -21 36 -39 35 -40 -1 -1 0 -11 3 -22 3 -13 15 -22 29
-23 19 -1 23 2 18 16 -3 9 -3 14 1 10 5 -4 18 2 29 13 19 17 20 21 7 29 -8 5
-21 10 -29 10 -8 0 -11 3 -8 6 3 4 2 15 -4 26 -10 18 -8 19 11 13 14 -5 25 -2
30 6 10 15 38 21 64 13 14 -5 17 -12 12 -35 -5 -29 8 -41 17 -16 3 6 6 2 6
-10 1 -12 -5 -24 -11 -26 -9 -4 -8 -6 2 -6 8 -1 20 -11 25 -23 6 -13 21 -24
35 -26 14 -2 29 -8 34 -13 15 -14 43 -11 50 6 5 14 9 14 35 0 34 -17 77 -20
86 -5 4 6 20 9 36 8 26 -2 29 -6 28 -38 0 -19 -12 -60 -27 -90 -30 -60 -55
-73 -110 -56 -23 7 -43 6 -67 -3 -26 -9 -48 -9 -97 0 -35 6 -71 15 -80 20 -10
5 -25 9 -33 9 -9 0 -27 7 -40 16 -42 28 -105 2 -105 -43 0 -32 -25 -39 -66
-19 -19 9 -46 16 -60 16 -17 0 -28 7 -31 19 -5 19 -61 41 -106 41 -14 0 -32 7
-41 15 -8 9 -19 15 -23 14 -23 -4 -24 3 -3 26 19 20 21 27 10 40 -10 12 -10
18 1 32 12 15 12 16 -3 10 -9 -3 -18 -2 -20 4 -2 6 -36 6 -93 0 -50 -5 -93 -7
-98 -4 -10 6 -143 -15 -167 -27 -11 -6 -29 -14 -40 -20 -27 -14 -137 -13 -146
2 -11 18 26 38 70 38 32 0 49 7 79 34 26 23 35 38 31 50 -9 23 22 54 74 77 34
15 42 23 42 44 0 14 3 26 8 26 35 6 60 5 75 -3 12 -6 27 -4 50 8 55 29 66 34
76 34 5 0 30 -20 56 -45 25 -25 67 -55 93 -67 72 -34 96 -60 88 -95 l-7 -28
28 28 c23 23 26 29 13 37 -12 7 -12 12 -2 22 10 10 17 10 32 0 23 -14 30 -15
30 -3 0 5 -20 18 -45 30 -25 12 -45 25 -45 29 0 4 -10 8 -21 9 -25 2 -102 78
-106 104 -3 22 28 30 42 11 6 -7 16 -12 22 -10z m4158 -2 c-3 -5 -10 -10 -16
-10 -5 0 -9 5 -9 10 0 6 7 10 16 10 8 0 12 -4 9 -10z m-1930 -90 c-3 -5 -13
-10 -21 -10 -8 0 -14 5 -14 10 0 6 9 10 21 10 11 0 17 -4 14 -10z m-1710 -60
c-3 -5 -20 -10 -36 -10 -18 0 -28 4 -24 10 3 6 20 10 36 10 18 0 28 -4 24 -10z
m502 -76 c-3 -3 -12 -4 -19 -1 -8 3 -5 6 6 6 11 1 17 -2 13 -5z m81 -39 c-3
-3 -9 2 -12 12 -6 14 -5 15 5 6 7 -7 10 -15 7 -18z m1927 -15 c3 -5 -1 -10
-10 -10 -9 0 -13 5 -10 10 3 6 8 10 10 10 2 0 7 -4 10 -10z m-3010 -833 c5 5
3 0 -4 -10 -13 -16 -14 -16 -27 0 -20 26 -17 39 4 20 10 -10 23 -14 27 -10z
m-505 -197 c0 -5 -2 -10 -4 -10 -3 0 -8 5 -11 10 -3 6 -1 10 4 10 6 0 11 -4
11 -10z m1257 -142 c-3 -7 -5 -2 -5 12 0 14 2 19 5 13 2 -7 2 -19 0 -25z
m-172 -68 c-3 -5 -11 -10 -16 -10 -6 0 -7 5 -4 10 3 6 11 10 16 10 6 0 7 -4 4
-10z m100 -60 c6 -10 -22 -79 -34 -81 -54 -7 -53 -8 -45 35 3 23 12 44 18 48
16 11 54 10 61 -2z m-152 -189 c2 -16 8 -36 13 -43 18 -24 34 -68 24 -68 -5 0
-12 10 -16 23 -3 12 -13 29 -20 38 -8 8 -16 38 -20 65 -4 37 -3 45 5 32 6 -9
12 -30 14 -47z m168 -168 c0 -10 4 -44 8 -75 7 -58 -3 -80 -15 -34 -9 37 -10
126 -1 126 4 0 7 -8 8 -17z"/>
<path d="M6341 4730 c-15 -8 -8 -40 8 -40 12 0 21 24 12 38 -4 6 -12 8 -20 2z"/>
<path d="M6339 4673 c-12 -3 -17 -15 -17 -39 0 -18 4 -34 8 -34 25 0 40 15 40
40 0 32 -7 38 -31 33z"/>
<path d="M6125 4620 c4 -6 11 -8 16 -5 14 9 11 15 -7 15 -8 0 -12 -5 -9 -10z"/>
<path d="M6470 4562 c0 -12 79 -47 87 -38 4 3 7 15 8 26 1 17 -5 20 -47 20
-26 0 -48 -4 -48 -8z"/>
<path d="M7000 4499 c0 -5 5 -7 10 -4 6 3 10 8 10 11 0 2 -4 4 -10 4 -5 0 -10
-5 -10 -11z"/>
<path d="M6858 4473 c7 -3 16 -2 19 1 4 3 -2 6 -13 5 -11 0 -14 -3 -6 -6z"/>
<path d="M6890 4470 c0 -5 14 -10 32 -10 36 0 35 4 -4 14 -17 4 -28 2 -28 -4z"/>
<path d="M7188 4473 c-16 -2 -28 -9 -28 -14 0 -15 46 -10 60 6 7 8 9 14 4 14
-5 -1 -21 -4 -36 -6z"/>
<path d="M1780 5924 c-36 -13 -63 -23 -60 -24 47 -10 110 -4 138 11 26 15 32
16 32 4 0 -8 -6 -15 -14 -15 -8 0 -18 -4 -21 -10 -10 -15 22 -12 38 5 8 7 26
17 40 20 14 4 28 13 31 21 9 23 -107 16 -184 -12z"/>
<path d="M8365 5928 c-22 -4 -87 -13 -144 -18 -128 -13 -215 -34 -241 -60 -11
-11 -29 -20 -40 -20 -11 0 -20 -4 -20 -10 0 -5 -12 -16 -27 -24 -16 -8 -27
-18 -25 -23 2 -4 -7 -10 -20 -13 -22 -6 -22 -7 10 -22 19 -10 32 -12 32 -6 0
6 8 4 18 -5 13 -12 36 -17 78 -17 l59 1 -30 16 c-37 20 -47 34 -34 50 16 18
126 73 148 73 11 0 22 4 25 9 4 5 38 14 76 20 39 6 102 16 140 22 68 11 88 22
53 31 -10 2 -36 0 -58 -4z"/>
<path d="M1981 5919 c-18 -6 -42 -18 -53 -28 -19 -18 -19 -19 6 -23 14 -3 49
-4 78 -2 37 2 46 0 28 -5 -48 -16 8 -25 75 -13 34 7 88 12 119 12 57 0 96 12
96 30 0 5 -20 9 -45 8 -32 0 -50 4 -58 16 -9 13 -20 16 -40 11 l-27 -7 22 -20
23 -20 -47 5 c-26 3 -56 11 -67 16 -11 6 -32 11 -48 11 -22 0 -25 2 -13 10 13
9 13 10 0 9 -8 0 -30 -5 -49 -10z"/>
<path d="M2503 5912 c8 -11 5 -11 -17 -1 -22 10 -29 10 -35 0 -7 -10 -13 -11
-30 -1 -12 6 -32 10 -44 7 -21 -3 -21 -4 -2 -11 11 -4 30 -13 42 -18 12 -6 41
-8 65 -5 24 3 37 4 30 1 -23 -10 -1 -24 37 -24 41 0 67 20 58 44 -4 9 -25 15
-60 18 -45 2 -53 0 -44 -10z"/>
<path d="M10863 5900 c-13 -5 -23 -14 -23 -19 0 -18 41 -33 74 -27 17 3 64 6
104 7 42 1 80 8 90 15 15 12 11 13 -30 14 -25 0 -48 -3 -51 -7 -2 -5 -2 -2 -1
5 3 9 -9 12 -44 10 -26 -1 -58 1 -72 5 -14 3 -35 2 -47 -3z"/>
<path d="M2665 5878 c-19 -11 -19 -11 0 -19 29 -11 85 -11 85 1 0 11 -33 30
-52 30 -7 0 -22 -6 -33 -12z"/>
<path d="M2358 5868 c9 -9 15 -9 24 0 9 9 7 12 -12 12 -19 0 -21 -3 -12 -12z"/>
<path d="M5370 5870 c0 -5 7 -10 15 -10 8 0 15 5 15 10 0 6 -7 10 -15 10 -8 0
-15 -4 -15 -10z"/>
<path d="M11163 5874 c13 -13 91 -24 125 -17 l37 7 -50 7 c-64 9 -120 11 -112
3z"/>
<path d="M1671 5842 c-9 -6 -10 -12 -2 -16 6 -4 -2 -18 -21 -35 l-31 -28 52
-17 c55 -18 118 -14 136 8 6 7 19 15 30 18 11 3 29 9 40 13 18 6 18 5 -2 -13
-22 -19 -22 -20 -2 -25 11 -3 18 -11 17 -19 -2 -10 22 -14 102 -19 74 -3 87
-6 44 -7 -34 -1 -76 -5 -94 -8 l-32 -7 23 -13 c13 -7 43 -13 67 -14 23 0 42
-4 42 -9 0 -5 6 -11 14 -14 21 -8 208 12 223 24 7 6 18 7 25 3 10 -7 158 -23
158 -17 0 1 -8 9 -17 19 -16 16 -16 17 15 12 18 -2 32 -1 32 3 0 10 -57 29
-87 29 -13 0 -27 8 -30 18 -4 9 -15 26 -25 37 -16 17 -16 20 -3 28 8 4 15 12
15 17 0 13 -77 13 -85 0 -4 -6 -11 -8 -16 -5 -18 12 -30 -5 -18 -26 14 -27 1
-39 -16 -16 -12 17 -80 44 -70 27 3 -4 -2 -10 -10 -14 -8 -3 -17 0 -21 6 -4 6
-25 8 -55 5 -31 -4 -48 -2 -46 4 3 13 -108 49 -148 48 -16 0 -66 2 -110 6 -45
3 -86 2 -94 -3z"/>
<path d="M2735 5834 c-6 -1 -22 -5 -37 -8 -19 -4 -28 -13 -28 -26 0 -11 5 -20
10 -20 20 0 9 -27 -15 -38 -43 -20 -18 -71 34 -72 17 0 22 -4 17 -16 -5 -12
-2 -15 11 -10 15 5 15 4 -1 -9 -11 -8 -26 -15 -33 -15 -7 0 -13 -7 -13 -16 0
-9 -6 -14 -12 -11 -7 2 -12 12 -10 22 2 11 -1 14 -9 9 -8 -4 -10 -3 -5 4 4 7
15 12 24 12 25 0 0 21 -42 35 -29 10 -38 10 -47 -1 -6 -8 -19 -14 -28 -15 -9
0 -4 -5 11 -11 25 -9 26 -11 12 -25 -13 -13 -32 -15 -112 -10 -55 3 -98 10
-100 16 -2 6 -8 8 -14 5 -6 -4 -14 -1 -18 6 -5 9 -22 10 -58 5 l-51 -7 16 -24
c9 -14 13 -27 9 -31 -3 -3 -6 -2 -6 4 0 18 -50 26 -152 24 -63 -1 -98 2 -98 8
0 6 10 11 23 11 18 0 19 2 7 10 -8 5 -35 10 -60 10 -25 0 -79 7 -120 16 -43 9
-94 13 -119 10 -25 -4 -49 -2 -57 5 -9 7 -18 6 -33 -3 -17 -11 -25 -9 -51 11
-28 20 -33 21 -48 8 -17 -15 -52 -19 -52 -7 0 4 -21 3 -47 -2 -27 -5 -72 -11
-101 -13 -30 -3 -60 -9 -68 -16 -14 -11 -85 -6 -108 8 -6 4 -17 8 -26 8 -8 1
-46 5 -85 8 -38 4 -146 14 -240 22 -93 9 -190 18 -215 21 -52 7 -48 7 -125 -5
-94 -15 -135 -28 -156 -47 -11 -10 -41 -21 -67 -24 -51 -5 -58 -21 -15 -32 16
-4 46 -16 67 -27 21 -11 42 -18 46 -16 5 3 10 -2 14 -10 4 -12 -3 -15 -33 -15
-22 0 -41 5 -43 11 -3 9 -22 7 -67 -4 -66 -17 -87 -27 -56 -27 10 0 23 -8 30
-17 10 -14 28 -17 82 -17 37 0 79 4 93 9 14 4 22 4 18 0 -4 -5 -3 -14 3 -21
14 -17 2 -22 -67 -30 -45 -6 -66 -14 -89 -36 l-30 -28 23 -6 c13 -4 21 -12 18
-19 -6 -17 43 -37 80 -33 24 2 30 -1 32 -21 3 -20 8 -22 34 -17 16 3 39 1 51
-6 13 -7 22 -7 24 -1 2 6 15 8 28 5 21 -3 23 -7 14 -23 -5 -10 -29 -29 -52
-40 -23 -12 -45 -26 -48 -32 -4 -5 -12 -6 -18 -3 -6 4 -26 0 -44 -9 -17 -9
-43 -19 -57 -21 -27 -6 -36 -11 -28 -19 4 -5 48 7 88 23 8 3 20 7 25 7 50 8
93 20 105 30 8 8 27 17 43 20 15 4 27 11 27 16 0 5 5 9 10 9 6 0 31 10 55 21
37 17 43 24 34 35 -7 9 -8 14 -1 14 6 0 25 12 42 26 32 27 53 26 30 -1 -10
-12 -10 -15 1 -15 11 0 11 -3 -1 -11 -11 -8 -8 -9 15 -4 17 3 46 9 65 13 24 6
35 13 34 25 -2 20 45 24 78 6 11 -6 64 -15 117 -20 69 -6 112 -16 149 -34 57
-27 82 -31 82 -13 0 6 3 8 6 5 4 -4 2 -12 -4 -20 -8 -10 -4 -19 18 -40 34 -33
43 -34 35 -4 -4 15 -4 18 3 8 8 -11 12 -10 20 5 6 10 14 15 19 11 4 -5 0 -14
-10 -21 -18 -14 -25 -42 -7 -31 20 13 62 16 55 5 -4 -6 -14 -9 -22 -6 -24 10
-11 -25 17 -43 22 -15 24 -15 17 2 -9 23 4 22 37 -4 14 -11 26 -30 26 -41 0
-15 5 -19 20 -15 13 3 20 0 20 -8 0 -8 9 -16 19 -20 10 -3 22 -16 25 -30 3
-13 14 -26 24 -28 9 -2 5 -3 -10 -1 -31 4 -38 -13 -10 -23 9 -3 25 -13 35 -21
9 -8 17 -12 17 -8 0 19 50 -30 65 -65 17 -36 17 -49 8 -107 -17 -100 4 -195
49 -226 13 -9 22 -20 22 -24 -3 -16 17 -53 30 -58 9 -3 18 -14 21 -25 4 -10
13 -19 22 -19 43 0 84 -34 120 -99 21 -36 48 -74 60 -84 25 -20 30 -43 11 -50
-8 -2 2 -13 21 -23 48 -26 71 -51 65 -67 -3 -9 8 -22 30 -35 20 -12 36 -26 36
-32 0 -5 7 -10 15 -10 22 0 18 13 -11 45 -15 16 -32 40 -38 55 -12 27 -56 88
-93 126 -11 13 -24 37 -28 53 -6 30 -6 30 22 20 28 -9 58 -58 54 -86 -1 -7 4
-13 11 -13 19 0 103 -82 100 -97 -2 -7 2 -13 8 -13 5 0 36 -24 67 -54 50 -47
57 -58 59 -97 2 -24 3 -47 3 -51 1 -6 64 -48 86 -57 6 -2 37 -16 70 -31 101
-47 160 -63 183 -51 35 19 60 12 100 -24 40 -35 151 -78 178 -68 8 3 14 0 14
-6 0 -7 13 -24 29 -39 16 -15 31 -38 33 -52 1 -14 10 -25 18 -26 26 -2 50 -16
50 -30 0 -7 12 -16 28 -19 15 -4 39 -13 54 -21 33 -18 52 -18 45 0 -7 17 27
51 41 42 22 -13 50 -86 55 -139 4 -52 3 -57 -24 -81 -16 -15 -29 -33 -29 -41
0 -8 -6 -15 -14 -15 -14 0 -56 -75 -56 -100 0 -7 7 -21 15 -30 13 -15 12 -19
-9 -39 -20 -19 -23 -28 -16 -47 5 -13 6 -24 2 -24 -4 -1 4 -11 19 -23 14 -12
33 -34 42 -49 35 -56 107 -198 107 -211 0 -21 50 -64 100 -86 25 -11 61 -34
80 -51 32 -29 34 -34 34 -93 -1 -93 -14 -206 -31 -259 -8 -26 -12 -52 -8 -58
3 -5 3 -16 -2 -22 -4 -7 -8 -38 -9 -68 0 -53 -32 -149 -59 -178 -9 -10 -10
-25 -4 -50 5 -22 4 -41 -2 -49 -6 -6 -12 -27 -13 -45 -2 -18 -6 -44 -11 -57
-5 -17 -4 -22 6 -19 8 3 15 17 17 31 2 15 10 27 18 27 17 0 17 3 -3 -84 -19
-81 -21 -85 -33 -67 -6 11 -13 10 -35 -8 l-28 -21 33 0 c25 0 30 -3 22 -13 -6
-7 -9 -24 -6 -38 5 -21 4 -22 -6 -6 -14 21 -30 22 -30 1 0 -8 5 -12 10 -9 6 3
10 -1 10 -9 0 -9 -4 -16 -9 -16 -5 0 -8 -11 -8 -25 0 -25 0 -25 18 -9 11 9 19
12 19 6 0 -6 -5 -14 -10 -17 -16 -10 -12 -23 6 -21 9 0 20 -6 24 -14 4 -8 12
-26 19 -39 8 -14 8 -21 2 -16 -6 3 -11 -1 -11 -9 0 -9 13 -18 35 -22 19 -3 32
-10 29 -15 -5 -9 14 -13 46 -11 8 0 17 -3 20 -8 7 -12 51 -13 113 -4 47 7 66
24 26 24 -25 0 -89 37 -89 51 0 5 -10 14 -22 19 -17 6 -19 9 -6 9 14 1 16 6 9
24 -10 27 -4 47 15 47 8 0 19 11 26 24 6 14 24 30 39 37 38 15 37 42 -1 56
-41 15 -38 39 7 60 21 10 39 27 41 38 3 11 11 24 18 28 8 5 12 12 9 17 -3 4 4
6 15 3 11 -3 20 0 20 6 0 6 -11 11 -25 11 -19 0 -25 5 -25 23 0 21 4 23 48 23
l47 -1 -1 35 c-1 34 0 35 35 36 65 0 111 14 136 42 26 28 33 52 15 52 -5 0
-10 9 -10 20 0 10 -9 24 -20 30 -11 6 -20 15 -20 20 0 5 12 2 28 -6 15 -7 47
-14 73 -14 38 0 50 5 76 33 17 17 35 45 40 61 5 17 15 32 23 34 8 3 10 0 5 -9
-5 -8 4 -3 18 10 15 14 27 29 27 34 0 5 13 24 29 43 24 26 29 40 25 67 -3 24
2 42 16 60 25 32 120 78 172 84 37 4 78 28 78 45 0 5 10 25 23 46 30 48 51
134 48 198 -2 45 1 53 24 68 14 9 25 22 25 28 0 6 20 32 45 59 24 26 47 59 51
74 7 27 -11 104 -24 106 -4 0 -16 2 -28 3 -11 1 -40 18 -63 36 -42 34 -105 51
-188 51 -21 1 -33 6 -36 18 -2 10 -27 25 -61 36 -54 19 -58 19 -67 2 -6 -9
-20 -22 -32 -28 l-22 -12 23 25 c29 32 28 48 -3 48 -14 0 -25 5 -25 10 0 6 -5
10 -11 10 -5 0 -7 -4 -4 -10 3 -5 1 -10 -4 -10 -15 0 -14 11 5 31 15 17 15 20
-5 45 -12 15 -21 35 -21 45 0 9 -18 32 -40 49 -31 25 -52 32 -97 36 -57 5
-123 29 -123 45 0 18 -45 49 -71 49 -22 0 -26 4 -22 19 3 14 -3 21 -27 29 -17
7 -29 16 -25 22 8 13 -21 13 -61 -2 -26 -9 -38 -9 -57 1 -14 8 -34 10 -47 6
-15 -5 -27 -1 -41 14 -11 12 -26 21 -34 21 -8 0 -15 5 -15 10 0 6 -5 10 -11
10 -6 0 -9 -6 -6 -13 3 -8 -7 -18 -24 -24 -31 -12 -41 1 -17 25 22 22 -1 25
-34 4 -18 -11 -48 -23 -66 -27 -25 -5 -37 -15 -47 -38 -13 -31 -55 -75 -55
-58 0 4 -16 16 -35 26 -32 18 -36 18 -69 2 -42 -20 -61 -14 -99 27 -30 33 -30
35 -11 149 5 30 4 37 -10 37 -9 0 -16 5 -16 10 0 6 -35 10 -86 10 -71 0 -84 2
-75 13 6 8 12 30 13 50 2 19 7 35 13 34 5 -1 11 9 13 22 2 14 11 35 19 48 14
21 14 23 -1 29 -21 8 -96 -4 -113 -18 -7 -6 -13 -18 -13 -28 0 -21 -36 -64
-48 -56 -5 3 -24 1 -43 -4 -46 -13 -87 7 -125 61 -23 34 -29 55 -32 110 -3 49
-1 69 8 69 8 0 10 12 5 39 -5 33 -3 42 16 60 13 12 27 21 33 21 5 0 17 7 26
15 19 17 107 24 130 10 8 -5 29 -10 46 -10 24 0 30 4 30 20 -1 17 6 20 54 22
33 1 63 -3 75 -11 15 -10 26 -11 39 -4 25 14 65 -25 64 -62 -1 -40 59 -115 78
-99 19 16 18 45 -7 109 -33 87 -34 96 -7 122 46 43 73 63 118 85 25 13 41 23
36 23 -6 0 -1 7 10 15 13 10 14 14 5 15 -10 0 -11 3 -2 14 7 8 8 17 3 20 -14
9 -22 58 -8 53 6 -2 10 -13 9 -23 -1 -17 1 -16 17 4 11 13 16 30 13 40 -3 9
-3 14 2 10 12 -11 35 11 35 33 0 15 7 19 33 19 22 0 28 3 18 9 -9 6 3 11 38
16 44 6 50 9 35 19 -13 10 -14 17 -5 34 12 22 64 52 91 52 9 0 20 4 25 9 14
13 85 34 92 27 3 -3 -6 -11 -21 -17 -26 -12 -34 -33 -16 -44 5 -3 26 4 47 15
21 11 45 20 53 20 8 1 36 11 62 23 43 20 46 23 32 41 -14 20 -14 20 -29 0 -8
-10 -15 -22 -15 -25 0 -3 -21 -3 -47 1 -47 7 -78 33 -69 57 4 9 -4 13 -22 14
l-27 1 30 7 c18 4 31 14 33 25 4 17 -1 19 -51 13 -58 -6 -106 -25 -147 -61
-14 -11 -9 -4 10 17 19 21 46 41 60 44 14 3 30 13 37 22 9 13 32 15 124 14
102 -1 117 1 158 23 79 42 87 32 36 -38 -25 -34 -45 -66 -45 -71 0 -4 29 -7
65 -6 36 1 68 -1 72 -4 3 -4 1 -7 -5 -7 -7 0 -12 -5 -12 -11 0 -7 10 -5 25 5
26 17 50 21 41 7 -8 -12 25 -24 36 -13 13 13 -1 42 -17 36 -10 -4 -13 2 -10
25 4 30 3 31 -31 29 -21 -1 -39 3 -44 11 -5 8 -13 10 -21 5 -8 -4 -3 5 9 21
22 27 22 30 5 36 -10 4 -12 8 -5 8 6 1 12 14 12 30 0 25 -6 31 -35 41 -19 6
-34 16 -32 23 1 6 -18 15 -43 21 -25 5 -47 13 -50 16 -3 4 -16 13 -29 19 -15
9 -20 16 -13 23 6 6 -11 31 -49 71 l-59 62 -28 -32 c-28 -34 -84 -54 -96 -34
-4 6 -16 11 -27 11 -18 0 -22 9 -22 53 0 11 -9 19 -26 23 -14 3 -42 14 -61 24
-23 12 -63 19 -120 21 -85 4 -85 4 -85 -21 0 -14 3 -33 8 -43 6 -14 3 -25 -14
-43 -21 -22 -21 -24 -3 -30 61 -22 72 -73 22 -104 -18 -11 -41 -20 -50 -20
-22 0 -22 -7 -3 -53 28 -68 -14 -95 -74 -48 -28 23 -35 35 -36 67 0 38 -1 39
-40 42 -49 3 -142 30 -172 50 -13 8 -49 15 -82 16 -56 1 -60 3 -77 34 -12 23
-24 32 -38 30 -17 -2 -22 3 -24 28 -2 24 5 39 32 66 20 20 50 38 69 42 18 3
39 15 47 26 9 12 26 20 45 20 26 0 95 39 70 40 -5 0 1 7 13 16 12 8 19 20 16
26 -9 15 57 -1 74 -18 18 -18 23 -18 16 1 -4 8 -1 15 5 15 7 0 28 7 49 16 l37
15 -24 18 -24 19 22 7 c32 10 10 32 -42 43 -39 8 -37 9 25 8 38 -1 68 -5 68
-9 0 -5 14 -6 30 -2 29 6 43 -8 18 -18 -8 -4 -9 -6 -2 -6 6 -1 17 6 24 14 9
10 9 15 1 15 -6 0 -11 4 -11 8 0 5 7 9 15 9 8 0 15 -4 15 -8 0 -4 17 -11 38
-17 20 -5 29 -10 20 -11 -10 -1 -18 -6 -18 -11 0 -6 11 -8 24 -4 30 7 97 -13
113 -35 14 -20 2 -37 -33 -45 -21 -6 -24 -9 -14 -21 10 -13 8 -15 -16 -17 -16
-1 -40 -1 -54 0 -40 3 -70 -7 -70 -24 0 -13 13 -15 79 -11 55 3 84 0 97 -10
10 -7 26 -13 36 -13 10 0 17 -5 16 -12 -3 -12 11 -17 87 -37 110 -28 143 -17
59 20 -63 28 -50 33 20 9 55 -20 83 -19 71 1 -4 5 -1 9 5 9 7 0 2 11 -11 25
-13 13 -32 25 -41 25 -23 0 -48 27 -42 45 5 11 11 12 32 2 15 -6 34 -17 43
-24 23 -19 65 -21 61 -3 -2 8 0 12 4 8 8 -8 64 22 64 34 0 4 -10 8 -22 8 -13
1 -41 9 -63 20 -22 11 -49 20 -60 20 -11 0 -38 7 -60 14 -39 14 -38 19 10 29
14 3 11 5 -10 7 -26 1 -27 3 -10 10 19 7 18 9 -8 19 -39 15 -86 24 -122 23
-24 0 -26 1 -10 7 19 8 19 8 -2 15 -13 4 -30 3 -40 -2 -12 -7 -27 -4 -55 14
-21 13 -43 24 -49 24 -7 0 -17 7 -23 16 -17 22 -144 33 -157 13 -7 -12 -9 -12
-9 0 0 11 -12 13 -61 7 -33 -3 -68 -10 -77 -15 -23 -13 -23 -51 0 -51 10 0 18
-4 18 -10 0 -13 -3 -13 -34 1 -40 18 -39 69 1 69 7 0 13 5 13 11 0 17 -100 2
-129 -19 -43 -32 -47 -47 -20 -76 17 -18 35 -26 59 -26 50 0 80 -10 80 -26 0
-8 5 -14 10 -14 6 0 1 -9 -10 -20 -11 -11 -26 -17 -36 -13 -11 4 -15 1 -12
-12 4 -24 -13 -29 -37 -10 -16 12 -17 16 -6 24 11 7 10 11 -7 20 -29 15 -43
14 -58 -6 -13 -17 -14 -17 -20 4 -6 22 -29 37 -44 28 -5 -3 -11 -1 -15 5 -3 5
-1 10 6 10 7 0 -3 14 -21 30 -18 17 -40 30 -49 30 -11 0 -10 4 5 18 10 10 27
17 36 14 10 -2 34 6 54 19 21 12 33 24 28 25 -17 4 -109 11 -119 8z m530 -45
c40 1 13 -14 -38 -22 -31 -5 -36 -3 -28 7 6 7 7 17 3 21 -4 5 2 5 13 0 11 -4
34 -7 50 -6z m-988 -165 c-3 -3 -12 -4 -19 -1 -8 3 -5 6 6 6 11 1 17 -2 13 -5z
m-457 -55 c-11 -8 -3 -9 33 -6 26 3 47 1 47 -3 0 -11 -26 -20 -56 -20 -13 0
-24 -4 -24 -9 0 -5 -7 -11 -14 -14 -10 -4 -13 -1 -10 8 4 10 0 12 -15 8 -12
-3 -21 -9 -21 -14 0 -5 -9 -9 -20 -9 -24 0 -25 6 -5 26 8 9 20 12 26 8 8 -5 9
-3 4 5 -5 9 -22 11 -54 7 -25 -3 -41 -3 -35 -1 17 8 96 23 129 24 24 0 27 -2
15 -10z m1768 -4 c2 -2 -11 -5 -28 -7 -21 -3 -30 0 -30 9 0 10 8 11 28 7 15
-4 28 -8 30 -9z m-671 -31 c-3 -3 -12 -4 -19 -1 -8 3 -5 6 6 6 11 1 17 -2 13
-5z m-432 -84 c-3 -5 -13 -10 -21 -10 -8 0 -12 5 -9 10 3 6 13 10 21 10 8 0
12 -4 9 -10z m-320 -20 c-3 -5 -14 -10 -23 -10 -9 0 -26 -7 -36 -15 -11 -8
-30 -15 -43 -15 -13 0 -23 -4 -23 -10 0 -6 -26 -10 -57 -10 l-58 1 38 18 c20
9 34 21 30 25 -4 4 15 4 42 1 35 -5 60 -2 85 9 41 18 53 20 45 6z m-1402 -57
c-7 -2 -19 -2 -25 0 -7 3 -2 5 12 5 14 0 19 -2 13 -5z m1447 -63 c-19 -4 -44
-11 -55 -14 -20 -8 -20 -7 -1 8 11 9 36 15 55 15 l36 -1 -35 -8z m243 -65 c-6
-16 -16 -19 -26 -8 -9 8 13 34 24 28 4 -3 6 -12 2 -20z m76 -175 c0 -8 -7 -3
-15 13 -8 15 -12 33 -7 40 7 12 20 -20 22 -53z m81 20 c22 -43 20 -46 -13 -28
-37 19 -49 41 -30 56 22 16 20 18 43 -28z m1020 -49 c0 -6 -4 -13 -10 -16 -5
-3 -10 1 -10 9 0 9 5 16 10 16 6 0 10 -4 10 -9z m-988 -33 c-9 -9 -12 -7 -12
12 0 19 3 21 12 12 9 -9 9 -15 0 -24z m828 18 c0 -2 -7 -7 -16 -10 -8 -3 -12
-2 -9 4 6 10 25 14 25 6z m-1820 -35 c0 -5 13 -12 28 -16 16 -3 35 -18 45 -34
16 -28 16 -29 -3 -24 -10 3 -22 13 -25 24 -3 10 -14 21 -25 24 -23 7 -48 35
-31 35 6 0 11 -4 11 -9z m1280 -11 c0 -5 -4 -10 -10 -10 -5 0 -10 5 -10 10 0
6 5 10 10 10 6 0 10 -4 10 -10z m-215 -20 c3 -5 -1 -10 -10 -10 -9 0 -13 5
-10 10 3 6 8 10 10 10 2 0 7 -4 10 -10z m295 -35 c8 -6 23 -15 33 -18 32 -12
19 -35 -22 -39 -42 -4 -96 13 -84 26 5 5 -3 3 -17 -4 -14 -8 -45 -14 -69 -15
l-45 -2 23 18 c13 11 29 19 37 19 7 0 28 9 46 20 33 20 69 18 98 -5z m40 -83
c0 -4 -13 -19 -30 -34 -25 -22 -28 -30 -23 -61 4 -29 2 -37 -16 -46 -27 -15
-36 3 -27 57 3 20 7 46 8 57 4 24 88 50 88 27z m93 -4 c4 -10 8 -10 15 1 9 12
14 12 36 -3 14 -9 26 -21 26 -26 0 -14 -23 -13 -37 1 -9 9 -13 2 -18 -25 -7
-35 -35 -52 -35 -20 0 11 -6 14 -22 8 -20 -6 -21 -5 -9 9 16 20 8 47 -13 47
-8 0 -18 5 -21 10 -4 6 10 10 34 10 22 0 42 -5 44 -12z m207 -72 c-7 -10 -29
-14 -61 -14 -57 2 -53 15 6 21 22 2 46 4 54 5 11 2 11 -1 1 -12z m-94 -35 c-7
-11 -98 -41 -125 -41 -12 0 -21 4 -21 9 0 9 27 18 100 30 25 5 46 9 48 10 2 0
1 -3 -2 -8z m-1171 -51 c3 -5 1 -10 -4 -10 -6 0 -11 5 -11 10 0 6 2 10 4 10 3
0 8 -4 11 -10z m963 -1048 c2 -7 -2 -10 -12 -6 -9 3 -16 11 -16 16 0 13 23 5
28 -10z m482 -63 c0 -21 -16 -26 -23 -6 -6 17 3 38 14 31 5 -3 9 -14 9 -25z
m720 -360 c0 -5 -4 -9 -10 -9 -5 0 -10 7 -10 16 0 8 5 12 10 9 6 -3 10 -10 10
-16z m-642 -537 c2 -7 -2 -10 -12 -6 -9 3 -16 11 -16 16 0 13 23 5 28 -10z
m642 -511 c0 -6 -4 -13 -10 -16 -5 -3 -10 1 -10 9 0 9 5 16 10 16 6 0 10 -4
10 -9z m-720 -785 c0 -2 -7 -7 -16 -10 -8 -3 -12 -2 -9 4 6 10 25 14 25 6z
m47 -16 c13 0 13 -2 -1 -15 -16 -16 -30 -20 -22 -6 4 5 1 11 -6 13 -7 3 -8 9
-3 18 6 10 10 11 13 2 2 -7 10 -12 19 -12z"/>
<path d="M10960 5830 c8 -5 11 -10 5 -11 -22 -1 32 -18 63 -18 49 -1 38 16
-18 28 -62 13 -69 13 -50 1z"/>
<path d="M2495 5820 l-30 -7 25 -11 c15 -6 19 -11 10 -13 -21 -2 -23 -2 -47 6
-14 4 -23 2 -23 -4 0 -6 12 -14 28 -17 15 -4 46 -16 70 -27 32 -15 46 -17 55
-8 6 6 21 11 33 11 23 0 34 16 26 38 -2 6 -8 12 -14 12 -5 0 -6 -4 -3 -10 3
-6 -1 -7 -10 -4 -12 5 -13 10 -6 17 6 6 11 15 11 19 0 9 -79 8 -125 -2z"/>
<path d="M8800 5790 c0 -5 5 -10 10 -10 6 0 10 5 10 10 0 6 -4 10 -10 10 -5 0
-10 -4 -10 -10z"/>
<path d="M12320 5736 c-34 -11 -33 -11 29 -14 36 -2 69 2 74 7 8 8 5 11 -8 12
-11 1 -29 2 -40 4 -11 1 -36 -3 -55 -9z"/>
<path d="M7725 5661 c-3 -5 -2 -12 2 -14 12 -8 63 4 63 14 0 12 -57 12 -65 0z"/>
<path d="M3360 5631 c-45 -8 -56 -41 -13 -41 35 0 50 10 50 33 0 9 -1 16 -1
16 -1 -1 -17 -4 -36 -8z"/>
<path d="M3418 5613 c6 -2 18 -2 25 0 6 3 1 5 -13 5 -14 0 -19 -2 -12 -5z"/>
<path d="M5230 5561 c0 -4 -12 -12 -27 -18 l-28 -11 33 -1 c30 -1 47 -20 20
-22 -7 0 -2 -5 12 -11 24 -10 24 -11 5 -18 -29 -10 111 -23 165 -14 100 16
171 58 121 71 -12 3 -21 9 -21 13 0 12 -54 19 -66 9 -6 -5 -39 -9 -72 -10 -34
-1 -62 -6 -62 -10 0 -14 -27 -10 -33 5 -6 14 -47 29 -47 17z"/>
<path d="M3011 5531 c-6 -11 -11 -25 -11 -32 0 -6 -8 -18 -17 -26 -16 -12 -15
-13 10 -7 17 4 27 2 27 -5 0 -16 26 -14 61 4 24 13 36 14 69 4 31 -10 43 -10
52 -1 9 9 6 12 -15 12 -15 0 -27 4 -27 9 0 5 -17 15 -37 21 -21 7 -49 19 -62
27 -18 12 -22 12 -15 2 6 -12 5 -12 -8 -1 -14 11 -18 10 -27 -7z"/>
<path d="M0 5461 c0 -5 12 -9 28 -9 15 0 32 -1 37 -2 25 -6 38 3 15 10 -35 11
-80 12 -80 1z"/>
<path d="M3325 5460 c3 -5 8 -10 11 -10 2 0 4 5 4 10 0 6 -5 10 -11 10 -5 0
-7 -4 -4 -10z"/>
<path d="M3288 5453 c7 -3 16 -2 19 1 4 3 -2 6 -13 5 -11 0 -14 -3 -6 -6z"/>
<path d="M3097 5433 c-24 -23 9 -31 39 -8 18 14 18 14 -7 15 -14 0 -29 -3 -32
-7z"/>
<path d="M3215 5411 c-10 -17 12 -21 25 -6 10 12 10 15 -3 15 -9 0 -18 -4 -22
-9z"/>
<path d="M165 5340 c3 -5 17 -10 31 -10 13 0 24 5 24 10 0 6 -14 10 -31 10
-17 0 -28 -4 -24 -10z"/>
<path d="M11775 5300 c-8 -13 5 -13 25 0 13 8 13 10 -2 10 -9 0 -20 -4 -23
-10z"/>
<path d="M651 5269 c-13 -10 -30 -19 -39 -19 -12 0 -13 -3 -5 -11 16 -16 54
-7 70 18 19 28 4 36 -26 12z"/>
<path d="M5840 5270 c-6 -11 -18 -20 -28 -20 -13 0 -14 -2 -3 -9 7 -5 10 -14
7 -20 -4 -6 -2 -11 3 -11 6 0 11 -7 11 -16 0 -11 5 -14 16 -10 12 5 14 1 9
-16 -7 -19 -5 -20 26 -14 18 3 30 3 26 0 -4 -4 -2 -13 4 -20 15 -18 1 -37 -22
-31 -21 6 -25 -3 -8 -20 8 -8 5 -13 -10 -18 -12 -3 -21 -11 -21 -16 0 -6 4 -7
10 -4 5 3 18 1 27 -4 10 -6 14 -11 8 -11 -5 0 -21 -9 -34 -19 l-25 -19 32 3
c18 1 35 5 39 9 3 3 36 6 73 6 43 0 73 5 86 15 14 11 16 15 4 15 -12 0 -11 3
3 11 26 15 21 39 -8 39 -14 0 -25 5 -25 11 0 13 -89 99 -103 99 -5 0 -3 8 6
18 28 31 21 45 -18 40 -39 -4 -43 -1 -17 18 15 12 13 13 -20 14 -27 0 -40 -5
-48 -20z"/>
<path d="M6800 5280 c0 -5 6 -10 14 -10 8 0 18 5 21 10 3 6 -3 10 -14 10 -12
0 -21 -4 -21 -10z"/>
<path d="M5785 5270 c-3 -5 -2 -10 4 -10 5 0 13 5 16 10 3 6 2 10 -4 10 -5 0
-13 -4 -16 -10z"/>
<path d="M6671 5256 c-8 -10 -9 -16 -1 -21 5 -3 13 1 16 10 9 22 -1 29 -15 11z"/>
<path d="M3230 5201 c0 -5 9 -7 20 -4 11 3 20 7 20 9 0 2 -9 4 -20 4 -11 0
-20 -4 -20 -9z"/>
<path d="M5734 5155 c-4 -8 -17 -15 -30 -15 -17 0 -24 -6 -24 -19 0 -11 5 -21
11 -23 8 -3 5 -10 -6 -22 -30 -30 -5 -42 57 -27 66 17 81 28 74 57 -4 15 -1
24 10 28 13 5 14 9 4 21 -17 20 -89 20 -96 0z"/>
<path d="M10850 5160 c0 -5 5 -10 10 -10 6 0 10 5 10 10 0 6 -4 10 -10 10 -5
0 -10 -4 -10 -10z"/>
<path d="M11855 5160 c3 -5 8 -10 11 -10 2 0 4 5 4 10 0 6 -5 10 -11 10 -5 0
-7 -4 -4 -10z"/>
<path d="M11030 5128 c0 -9 -5 -18 -11 -20 -7 -2 -11 -17 -11 -33 2 -96 0
-200 -4 -206 -2 -4 0 -10 5 -13 5 -4 13 -2 16 4 4 6 16 8 28 4 21 -6 21 -6 -2
20 -21 22 -23 29 -13 51 7 15 20 25 32 25 24 0 24 -2 4 46 -9 22 -18 56 -19
77 -2 38 -25 79 -25 45z"/>
<path d="M170 5120 c0 -5 5 -10 10 -10 6 0 10 5 10 10 0 6 -4 10 -10 10 -5 0
-10 -4 -10 -10z"/>
<path d="M1360 5122 c0 -9 36 -44 59 -57 9 -5 8 1 -4 18 -9 15 -14 31 -10 37
4 6 -4 10 -19 10 -14 0 -26 -4 -26 -8z"/>
<path d="M115 5100 c-3 -6 1 -7 9 -4 18 7 21 14 7 14 -6 0 -13 -4 -16 -10z"/>
<path d="M3170 5090 c20 -13 33 -13 25 0 -3 6 -14 10 -23 10 -15 0 -15 -2 -2
-10z"/>
<path d="M11485 5000 c-3 -5 -2 -10 4 -10 5 0 13 5 16 10 3 6 2 10 -4 10 -5 0
-13 -4 -16 -10z"/>
<path d="M3770 4985 c0 -7 64 -35 80 -35 21 0 9 18 -17 24 -16 4 -36 9 -45 12
-10 3 -18 3 -18 -1z"/>
<path d="M3779 4867 c7 -9 24 -17 37 -17 29 0 39 15 11 16 -12 0 -31 5 -42 9
-18 8 -19 7 -6 -8z"/>
<path d="M11000 4806 c0 -35 -10 -56 -27 -56 -22 0 -44 -26 -37 -45 4 -9 13
-14 20 -11 8 3 14 1 14 -3 0 -5 -7 -11 -15 -15 -9 -3 -15 -18 -15 -37 0 -37
-31 -84 -70 -104 -26 -13 -29 -13 -32 3 -3 12 -9 7 -21 -19 -17 -35 -20 -36
-73 -38 -52 -1 -86 -16 -132 -58 -7 -7 -18 -13 -23 -13 -5 0 -9 -7 -9 -16 0
-10 6 -14 15 -11 11 5 13 0 8 -23 -8 -44 28 -42 45 3 11 28 10 34 -5 45 -9 6
-15 12 -12 13 54 8 60 7 48 -7 -9 -11 -9 -18 -1 -26 9 -9 15 -7 25 7 8 10 19
15 25 11 16 -10 25 13 12 29 -10 13 -8 15 12 13 19 -2 24 -7 20 -20 -2 -11 1
-18 9 -18 19 1 52 27 46 37 -3 4 15 8 39 7 24 0 44 3 44 7 0 4 7 10 16 13 8 3
12 2 9 -4 -9 -15 11 -12 22 3 6 6 11 19 12 27 1 8 3 27 4 42 2 15 12 37 22 48
16 18 17 24 5 61 -8 22 -22 46 -32 53 -18 13 -17 14 8 19 15 3 38 0 51 -6 18
-8 27 -7 41 6 10 10 26 17 35 17 9 0 18 4 21 8 5 9 -8 34 -18 33 -24 -3 -38 2
-64 24 -37 31 -42 31 -42 1z m-280 -370 c0 -3 -4 -8 -10 -11 -5 -3 -10 -1 -10
4 0 6 5 11 10 11 6 0 10 -2 10 -4z"/>
<path d="M11200 4810 c-8 -5 -10 -10 -5 -10 6 0 17 5 25 10 8 5 11 10 5 10 -5
0 -17 -5 -25 -10z"/>
<path d="M5440 4219 c0 -5 5 -7 10 -4 6 3 10 8 10 11 0 2 -4 4 -10 4 -5 0 -10
-5 -10 -11z"/>
<path d="M10261 4091 c-25 -34 -26 -54 -6 -71 13 -10 17 -7 29 21 30 73 16
105 -23 50z"/>
<path d="M3280 4100 c0 -5 5 -10 10 -10 6 0 10 5 10 10 0 6 -4 10 -10 10 -5 0
-10 -4 -10 -10z"/>
<path d="M3114 4039 c-17 -5 -38 -16 -45 -25 -12 -15 -11 -16 11 -9 14 4 29
11 35 16 13 12 48 11 40 -1 -4 -6 6 -10 24 -10 16 0 33 -4 36 -10 3 -5 17 -10
30 -10 12 0 25 -7 29 -15 3 -8 15 -15 27 -15 15 0 19 -5 15 -15 -4 -12 5 -15
49 -15 59 0 72 14 28 31 -27 10 -122 53 -153 69 -28 14 -94 19 -126 9z"/>
<path d="M556 3932 c-9 -15 10 -33 28 -26 13 5 14 9 5 20 -13 16 -25 18 -33 6z"/>
<path d="M9881 3931 c-33 -9 -51 -38 -31 -51 8 -5 18 -10 23 -10 13 0 47 39
47 55 0 16 -2 17 -39 6z"/>
<path d="M3470 3911 c15 -30 13 -33 -20 -26 -19 4 -30 3 -30 -4 0 -6 19 -11
44 -11 25 0 48 -5 52 -11 5 -8 9 -8 14 1 4 6 26 13 49 15 23 1 44 5 47 8 13
12 -78 47 -121 47 -42 0 -45 -2 -35 -19z"/>
<path d="M10256 3875 c-3 -9 -6 -29 -6 -45 0 -16 -6 -30 -12 -32 -10 -4 -10
-10 0 -32 6 -15 16 -25 21 -22 10 7 9 -26 -1 -34 -4 -3 2 -17 13 -30 l21 -25
-5 28 c-5 31 7 44 27 28 7 -6 16 -8 19 -5 3 4 13 -1 22 -10 23 -23 38 -20 23
4 -13 21 -44 36 -64 32 -7 -1 -15 10 -18 24 -5 20 -2 31 13 46 23 21 26 34 11
43 -5 3 -7 12 -3 20 3 9 -1 15 -10 15 -9 0 -22 3 -30 6 -8 3 -17 -2 -21 -11z"/>
<path d="M3285 3870 c3 -5 20 -10 36 -10 18 0 28 4 24 10 -3 6 -20 10 -36 10
-18 0 -28 -4 -24 -10z"/>
<path d="M3670 3870 c0 -5 11 -10 24 -10 14 0 28 5 31 10 4 6 -7 10 -24 10
-17 0 -31 -4 -31 -10z"/>
<path d="M9282 3675 c0 -16 2 -22 5 -12 2 9 2 23 0 30 -3 6 -5 -1 -5 -18z"/>
<path d="M7908 3668 c9 -9 15 -9 24 0 9 9 7 12 -12 12 -19 0 -21 -3 -12 -12z"/>
<path d="M10355 3660 c3 -5 11 -10 16 -10 6 0 7 5 4 10 -3 6 -11 10 -16 10 -6
0 -7 -4 -4 -10z"/>
<path d="M10401 3654 c9 -11 9 -18 2 -22 -8 -5 -7 -13 3 -26 12 -17 14 -18 14
-3 0 9 4 17 9 17 4 0 6 11 3 25 -3 17 -11 25 -24 25 -18 0 -19 -2 -7 -16z"/>
<path d="M10310 3624 c0 -22 2 -24 22 -13 22 12 22 12 5 -14 -13 -21 -14 -27
-3 -36 10 -9 17 -6 30 13 9 14 16 31 16 38 0 10 -2 10 -9 -1 -7 -11 -10 -9
-15 7 -4 11 -16 22 -26 25 -16 4 -20 0 -20 -19z"/>
<path d="M10210 3612 c0 -5 -16 -25 -37 -45 -20 -20 -32 -37 -27 -37 11 0 84
72 84 83 0 4 -4 7 -10 7 -5 0 -10 -4 -10 -8z"/>
<path d="M3870 3600 c0 -5 5 -10 10 -10 6 0 10 5 10 10 0 6 -4 10 -10 10 -5 0
-10 -4 -10 -10z"/>
<path d="M10375 3580 c-3 -5 1 -10 9 -10 9 0 16 5 16 10 0 6 -4 10 -9 10 -6 0
-13 -4 -16 -10z"/>
<path d="M8836 3554 c-3 -9 -6 -36 -6 -60 0 -50 15 -63 50 -44 18 9 21 18 16
41 -6 32 -34 79 -46 79 -4 0 -11 -7 -14 -16z"/>
<path d="M10410 3544 c-26 -26 -40 -30 -40 -14 0 6 -13 4 -30 -5 -16 -9 -30
-22 -30 -31 0 -9 5 -12 12 -8 7 4 22 9 35 10 18 2 23 -2 23 -22 0 -16 8 -27
23 -33 28 -11 39 -4 32 20 -4 11 -2 19 4 19 6 0 11 -6 11 -12 0 -7 6 -5 12 6
11 19 -5 97 -20 95 -4 0 -18 -11 -32 -25z"/>
<path d="M10093 3438 c-48 -49 -103 -91 -135 -105 -15 -7 -28 -20 -28 -29 0
-13 -7 -16 -34 -11 -26 4 -36 1 -40 -10 -9 -24 4 -81 20 -87 8 -3 14 -19 14
-36 0 -29 10 -36 48 -31 6 1 12 -2 12 -8 0 -5 21 -9 47 -8 27 0 49 -5 51 -11
10 -30 64 9 67 48 1 10 8 27 17 37 9 10 18 29 20 43 2 17 10 26 26 28 22 3 32
22 12 22 -12 0 -31 42 -35 78 -2 16 2 22 16 22 12 0 16 5 13 15 -4 10 0 15 12
16 18 0 18 1 0 12 -10 7 -26 20 -35 30 -22 24 -32 22 -68 -15z"/>
<path d="M9370 3419 c0 -7 29 -41 65 -76 36 -35 65 -69 65 -77 0 -7 8 -20 18
-29 10 -9 28 -37 41 -62 28 -57 126 -145 158 -143 13 1 24 7 24 13 8 72 6 87
-17 101 -13 9 -26 24 -29 35 -4 10 -13 19 -22 19 -11 0 -14 6 -9 25 5 19 2 25
-9 25 -9 0 -13 5 -10 10 3 6 -1 10 -9 10 -8 0 -21 8 -28 18 -7 9 -22 19 -33
20 -11 2 -29 14 -41 25 -52 53 -96 87 -114 87 -10 0 -25 3 -34 6 -10 4 -16 1
-16 -7z"/>
<path d="M10503 3260 c3 -24 1 -40 -6 -43 -8 -2 -8 -6 1 -11 7 -4 14 2 18 18
3 14 11 23 18 20 8 -3 12 3 11 18 -1 13 -8 22 -14 21 -6 -2 -11 2 -11 7 0 6
-5 10 -11 10 -8 0 -10 -14 -6 -40z"/>
<path d="M10394 3276 c-18 -13 -70 -13 -102 -1 -21 8 -62 -25 -62 -49 0 -12
-4 -26 -9 -31 -15 -16 -25 -85 -12 -85 6 0 11 -18 11 -41 0 -56 24 -46 28 12
3 41 22 83 22 48 0 -19 23 -69 32 -69 4 0 10 5 13 10 3 6 12 10 18 10 8 0 7
-3 -2 -9 -8 -5 -11 -16 -8 -26 4 -9 11 -13 17 -10 13 8 13 38 0 51 -18 18 -48
84 -38 84 5 0 21 9 35 20 28 22 17 25 -37 10 -40 -11 -67 6 -56 36 6 14 16 16
75 11 60 -5 71 -3 87 14 22 24 14 33 -12 15z"/>
<path d="M9445 3270 c3 -5 11 -10 16 -10 6 0 7 5 4 10 -3 6 -11 10 -16 10 -6
0 -7 -4 -4 -10z"/>
<path d="M2823 3216 c0 -18 3 -24 9 -18 7 7 7 16 0 28 -8 14 -9 13 -9 -10z"/>
<path d="M10608 3223 c7 -3 16 -2 19 1 4 3 -2 6 -13 5 -11 0 -14 -3 -6 -6z"/>
<path d="M10635 3205 l-30 -13 25 -12 c14 -6 36 -17 50 -25 l25 -15 -23 0
c-23 0 -23 0 -5 -25 12 -16 24 -22 36 -19 10 3 29 -1 42 -10 13 -9 31 -16 40
-16 29 0 75 -30 90 -60 14 -27 14 -30 -5 -40 -34 -18 -24 -33 19 -26 30 5 42
2 56 -14 22 -24 111 -30 102 -7 -14 38 79 44 105 8 22 -30 71 -59 111 -64 20
-3 37 -4 37 -2 0 12 -53 55 -61 50 -5 -4 -9 -2 -9 4 0 6 -12 22 -27 36 -26 24
-27 27 -10 36 24 14 7 35 -34 44 -16 4 -27 11 -24 15 9 15 -64 56 -140 80 -38
12 -87 29 -107 37 -37 16 -38 16 -81 -20 l-44 -36 -17 21 c-10 11 -19 31 -21
45 -1 13 -4 26 -7 28 -12 13 -66 13 -93 0z"/>
<path d="M10785 3200 c3 -5 11 -10 16 -10 6 0 7 5 4 10 -3 6 -11 10 -16 10 -6
0 -7 -4 -4 -10z"/>
<path d="M9490 3191 c0 -5 5 -13 10 -16 6 -3 10 -2 10 4 0 5 -4 13 -10 16 -5
3 -10 2 -10 -4z"/>
<path d="M10500 3180 c0 -5 5 -10 11 -10 5 0 7 5 4 10 -3 6 -8 10 -11 10 -2 0
-4 -4 -4 -10z"/>
<path d="M9727 3174 c-3 -3 3 -15 13 -27 24 -25 36 -17 18 12 -13 22 -20 25
-31 15z"/>
<path d="M9800 3130 c0 -5 7 -10 15 -10 8 0 15 5 15 10 0 6 -7 10 -15 10 -8 0
-15 -4 -15 -10z"/>
<path d="M10455 3120 c-3 -6 1 -13 10 -16 19 -8 30 0 20 15 -8 14 -22 14 -30
1z"/>
<path d="M10524 3121 c4 -5 14 -9 24 -9 9 1 30 -2 45 -6 22 -5 28 -4 25 6 -3
8 -24 14 -52 16 -30 2 -46 -1 -42 -7z"/>
<path d="M11347 3119 c7 -7 15 -10 18 -7 3 3 -2 9 -12 12 -14 6 -15 5 -6 -5z"/>
<path d="M11380 3091 c0 -5 5 -13 10 -16 6 -3 10 -2 10 4 0 5 -4 13 -10 16 -5
3 -10 2 -10 -4z"/>
<path d="M11350 3079 c0 -21 -34 -38 -80 -39 l-45 -1 31 -16 c18 -9 42 -13 56
-10 29 8 70 45 65 60 -5 16 -27 21 -27 6z"/>
<path d="M10740 3031 c0 -5 -3 -18 -7 -28 -6 -16 -5 -16 10 -4 19 15 23 41 7
41 -5 0 -10 -4 -10 -9z"/>
<path d="M11460 3034 c0 -17 28 -49 36 -41 4 4 -2 17 -14 30 -12 12 -22 17
-22 11z"/>
<path d="M9739 3009 c-7 -15 -6 -19 6 -19 8 0 15 -4 15 -9 0 -6 21 -13 48 -16
26 -3 65 -10 87 -15 66 -16 201 -22 188 -9 -6 6 -29 13 -52 16 -45 6 -54 19
-18 26 14 3 8 5 -15 6 -20 0 -48 5 -62 11 -17 6 -26 6 -26 0 0 -13 -67 -13
-72 -1 -1 6 -22 14 -46 19 -37 9 -44 8 -53 -9z"/>
<path d="M11520 2996 c0 -2 8 -10 18 -17 15 -13 16 -12 3 4 -13 16 -21 21 -21
13z"/>
<path d="M10637 2973 c-4 -3 -7 -11 -7 -17 0 -6 5 -5 12 2 6 6 9 14 7 17 -3 3
-9 2 -12 -2z"/>
<path d="M10455 2960 c-3 -5 -1 -10 4 -10 6 0 11 5 11 10 0 6 -2 10 -4 10 -3
0 -8 -4 -11 -10z"/>
<path d="M11594 2961 c7 -11 46 -35 46 -28 0 3 -12 12 -26 22 -15 9 -23 12
-20 6z"/>
<path d="M10165 2941 c5 -10 2 -11 -14 -6 -15 4 -21 2 -21 -9 0 -12 7 -14 33
-9 32 6 62 23 40 23 -6 0 -19 3 -29 7 -12 5 -15 3 -9 -6z"/>
<path d="M10400 2939 c0 -5 5 -7 10 -4 6 3 10 8 10 11 0 2 -4 4 -10 4 -5 0
-10 -5 -10 -11z"/>
<path d="M10100 2930 c0 -5 5 -10 10 -10 6 0 10 5 10 10 0 6 -4 10 -10 10 -5
0 -10 -4 -10 -10z"/>
<path d="M10235 2930 c-4 -6 11 -10 40 -10 25 0 44 4 41 8 -7 12 -74 14 -81 2z"/>
<path d="M10425 2925 c-22 -8 -41 -15 -42 -15 -1 0 -7 -9 -13 -20 -8 -16 -8
-20 3 -20 8 0 24 9 37 20 13 11 28 20 35 20 6 0 20 7 31 15 25 19 3 19 -51 0z"/>
<path d="M11670 2922 c6 -13 14 -21 18 -18 3 4 -2 14 -12 24 -18 16 -18 16 -6
-6z"/>
<path d="M10210 2902 c0 -10 41 -35 47 -28 9 8 -17 36 -33 36 -8 0 -14 -3 -14
-8z"/>
<path d="M11300 2906 c0 -2 8 -10 18 -17 15 -13 16 -12 3 4 -13 16 -21 21 -21
13z"/>
<path d="M11630 2900 c0 -4 9 -10 20 -13 11 -3 20 -2 20 3 0 4 -9 10 -20 13
-11 3 -20 2 -20 -3z"/>
<path d="M11695 2860 c3 -5 10 -10 16 -10 5 0 9 5 9 10 0 6 -7 10 -16 10 -8 0
-12 -4 -9 -10z"/>
<path d="M11009 2823 c-9 -25 -17 -85 -19 -148 0 -11 -9 -31 -19 -44 l-19 -24
-51 31 c-28 18 -54 32 -57 32 -3 0 -19 10 -36 21 -21 15 -26 25 -19 32 6 6 11
17 11 25 0 7 7 20 15 28 24 24 18 31 -31 32 -25 1 -61 9 -81 17 -39 17 -55 19
-34 6 17 -11 5 -33 -17 -30 -10 1 -25 -1 -35 -6 -21 -9 -50 -62 -42 -75 12
-19 -42 -10 -60 10 -19 21 -52 19 -67 -4 -4 -6 -8 -7 -8 -2 0 5 -11 -3 -25
-18 -14 -15 -25 -31 -25 -37 0 -5 -7 -9 -15 -9 -9 0 -12 -6 -9 -15 4 -8 2 -15
-4 -15 -6 0 -12 6 -15 13 -3 9 -8 9 -21 -2 -9 -8 -14 -21 -12 -28 12 -30 -46
-73 -125 -92 -70 -17 -125 -42 -140 -65 -4 -5 -11 -6 -17 -3 -15 10 -23 -79
-10 -108 9 -20 9 -28 -1 -38 -10 -9 -11 -8 -5 8 6 16 4 18 -6 8 -11 -10 -11
-16 3 -31 9 -10 17 -23 17 -29 0 -6 6 -24 14 -40 19 -38 37 -92 44 -127 3 -21
0 -33 -14 -43 -17 -13 -17 -14 2 -28 35 -26 78 -28 125 -6 29 14 62 21 105 21
42 0 66 4 71 14 12 21 53 39 108 48 28 4 72 12 98 16 35 7 60 5 95 -6 45 -15
91 -55 92 -79 0 -22 21 -25 40 -7 27 27 48 44 54 44 8 0 -17 -54 -29 -62 -6
-5 -2 -8 8 -8 10 0 20 7 23 15 9 23 26 6 18 -17 -5 -16 -3 -20 9 -15 19 7 37
-11 37 -40 0 -25 35 -53 72 -58 13 -1 35 -6 49 -9 18 -5 30 -2 38 8 14 17 36
22 27 7 -13 -20 50 -21 89 -1 21 11 50 20 62 20 16 0 23 6 23 20 0 26 54 134
80 160 22 22 44 92 41 135 -1 17 -3 53 -4 82 -1 28 -6 49 -10 46 -12 -7 -77
59 -77 80 0 10 -8 17 -20 17 -12 0 -25 13 -36 35 -10 22 -34 46 -60 61 -24 14
-45 29 -45 32 -1 4 -3 17 -4 30 -1 13 -7 28 -14 35 -6 6 -11 24 -11 40 0 22
-6 31 -28 39 -21 8 -31 23 -46 69 -10 33 -22 59 -27 59 -5 0 -14 -12 -20 -27z"/>
<path d="M10595 2830 c-3 -5 1 -10 9 -10 9 0 19 0 23 -1 4 0 9 4 11 10 5 14
-35 14 -43 1z"/>
<path d="M7747 2803 c-4 -3 -7 -15 -7 -25 0 -10 -7 -18 -15 -18 -8 0 -15 -7
-15 -15 0 -22 -51 -64 -85 -71 -42 -8 -62 -52 -47 -102 10 -30 8 -41 -10 -73
-27 -49 -16 -122 22 -151 24 -17 29 -18 61 -4 32 14 38 22 59 88 12 40 33 106
47 146 13 40 21 82 18 93 -5 15 -3 17 10 13 14 -6 15 -1 9 32 -6 35 -30 94
-38 94 -1 0 -6 -3 -9 -7z"/>
<path d="M10810 2740 c0 -5 5 -10 10 -10 6 0 10 5 10 10 0 6 -4 10 -10 10 -5
0 -10 -4 -10 -10z"/>
<path d="M11870 2700 c0 -5 5 -10 10 -10 6 0 10 5 10 10 0 6 -4 10 -10 10 -5
0 -10 -4 -10 -10z"/>
<path d="M12300 2650 c-12 -8 -11 -10 7 -10 12 0 25 5 28 10 8 13 -15 13 -35
0z"/>
<path d="M12250 2605 c0 -11 7 -15 23 -13 12 2 22 8 22 13 0 6 -10 11 -22 13
-16 2 -23 -2 -23 -13z"/>
<path d="M8040 2519 c0 -5 5 -7 10 -4 6 3 10 8 10 11 0 2 -4 4 -10 4 -5 0 -10
-5 -10 -11z"/>
<path d="M11790 2510 c0 -11 74 -60 91 -60 7 0 -9 16 -34 35 -49 37 -57 41
-57 25z"/>
<path d="M7970 2490 c0 -5 5 -10 11 -10 5 0 7 5 4 10 -3 6 -8 10 -11 10 -2 0
-4 -4 -4 -10z"/>
<path d="M12110 1990 c12 -17 25 -30 30 -30 5 0 12 -16 16 -35 5 -27 2 -41
-11 -55 -20 -22 -20 -22 13 -39 19 -10 21 -15 11 -27 -9 -11 -9 -18 -1 -26 9
-9 19 -5 42 17 16 16 30 36 30 44 0 9 10 21 22 26 13 6 24 18 26 28 3 16 -1
18 -26 12 -24 -5 -36 -1 -54 17 -12 12 -27 22 -33 21 -5 -1 -17 12 -25 29 -8
17 -25 35 -38 40 l-23 8 21 -30z"/>
<path d="M10828 1973 c6 -2 18 -2 25 0 6 3 1 5 -13 5 -14 0 -19 -2 -12 -5z"/>
<path d="M12064 1785 c-12 -13 -24 -30 -27 -37 -3 -8 -27 -25 -53 -39 -54 -27
-104 -67 -104 -84 0 -6 20 -15 45 -21 53 -12 87 4 106 48 6 16 22 31 35 34 13
3 24 10 24 15 0 4 11 20 25 35 29 32 32 54 7 54 -10 0 -22 4 -27 9 -6 6 -18 1
-31 -14z"/>
<path d="M11103 1791 c2 -3 11 -22 20 -42 20 -44 43 -55 68 -33 11 10 19 13
20 8 1 -16 18 30 18 51 1 18 -6 20 -64 21 -36 0 -64 -2 -62 -5z"/>
<path d="M3420 1661 c0 -5 5 -13 10 -16 6 -3 10 -2 10 4 0 5 -4 13 -10 16 -5
3 -10 2 -10 -4z"/>
<path d="M8440 1506 c0 -18 45 -23 55 -6 3 6 0 10 -9 10 -8 0 -21 3 -30 6 -11
4 -16 1 -16 -10z"/>
<path d="M3906 1415 c-4 -10 5 -13 36 -10 59 6 71 23 15 23 -29 0 -47 -5 -51
-13z"/>
<path d="M4730 1325 c33 -19 50 -18 26 0 -11 8 -27 15 -35 15 -10 -1 -7 -6 9
-15z"/>
<path d="M3978 1053 c7 -3 16 -2 19 1 4 3 -2 6 -13 5 -11 0 -14 -3 -6 -6z"/>
<path d="M3945 997 c-16 -5 -54 -18 -83 -29 -29 -10 -51 -14 -47 -9 8 14 -9
21 -25 10 -13 -7 -13 -9 -1 -9 22 0 -18 -31 -78 -60 -28 -14 -51 -31 -51 -38
0 -7 4 -11 8 -8 4 2 8 -9 7 -25 0 -25 -4 -29 -28 -29 -24 0 -26 -2 -17 -17 42
-69 50 -85 45 -93 -7 -11 -91 -27 -182 -34 -61 -5 -73 -4 -73 9 0 17 -27 20
-50 5 -11 -7 -11 -10 -2 -10 7 0 10 -5 7 -11 -4 -6 -20 -7 -38 -3 -44 9 -50
14 -36 30 9 12 6 14 -20 14 -19 0 -31 -5 -31 -14 0 -8 -8 -12 -23 -9 -14 3
-31 -2 -40 -12 -14 -14 -29 -15 -85 -10 -37 4 -71 10 -77 13 -21 13 -153 18
-178 7 -13 -5 -16 -4 -11 9 3 9 1 16 -5 16 -6 0 -11 -6 -11 -12 0 -15 -89 -20
-197 -12 -87 7 -97 24 -15 24 99 0 37 16 -71 18 -70 2 -97 -1 -87 -8 8 -5 23
-10 32 -10 9 0 20 -5 24 -12 5 -8 -8 -9 -49 -4 -36 4 -57 2 -57 -4 0 -5 28
-11 63 -12 l62 -1 -55 -6 -55 -6 47 -14 c26 -8 45 -18 42 -22 -2 -4 4 -9 13
-11 10 -2 -69 -3 -174 -4 -143 0 -190 3 -183 11 6 7 7 15 3 18 -10 11 -53 8
-53 -3 0 -16 -42 -11 -62 7 -16 14 -22 15 -39 5 -11 -7 -44 -13 -72 -13 -29 0
-121 -3 -205 -6 -119 -4 -156 -2 -169 9 -13 10 -17 10 -20 1 -6 -16 -99 -18
-108 -3 -3 6 -12 10 -18 10 -7 0 -6 -4 3 -11 11 -7 -8 -9 -65 -8 -44 1 -123
-3 -175 -10 -93 -12 -132 -16 -227 -26 -46 -4 -72 -23 -50 -37 19 -12 -19 -21
-59 -13 -25 4 -34 3 -29 -5 5 -8 -18 -9 -82 -4 -152 12 -242 11 -247 -2 -8
-20 4 -24 78 -25 53 -1 62 -3 36 -8 -53 -9 -24 -20 86 -31 184 -19 224 -26
224 -39 0 -19 -107 -30 -242 -26 -126 4 -138 3 -100 -8 24 -7 41 -15 37 -18
-3 -4 16 -10 42 -14 42 -6 45 -9 30 -20 -28 -20 -21 -44 16 -49 62 -10 122
-18 177 -24 79 -10 11890 -1 11860 8 -14 4 -96 8 -183 9 -218 1 -500 26 -662
57 -110 21 -216 57 -210 72 3 8 -9 12 -38 14 -37 1 -38 2 -9 5 18 2 30 8 28
12 -12 20 18 31 101 37 51 4 90 11 87 15 -3 5 -14 9 -25 9 -10 0 -19 5 -19 10
0 6 -6 10 -13 10 -22 0 -45 32 -45 62 0 24 5 28 44 34 24 3 42 10 39 14 -6 10
83 35 111 32 24 -3 88 54 78 69 -3 5 -9 7 -14 4 -5 -3 -30 2 -57 11 -26 10
-79 19 -118 21 -84 4 -151 15 -225 37 -30 9 -76 16 -102 16 -27 0 -48 5 -48
10 0 6 -7 10 -15 10 -8 0 -15 -4 -15 -8 0 -10 -83 -10 -90 0 -3 4 -21 8 -40 9
-19 2 -39 6 -45 9 -5 4 -30 10 -55 14 -24 4 -47 11 -50 16 -3 4 -39 11 -80 14
-41 3 -123 11 -182 18 -93 10 -108 15 -108 30 0 12 -7 18 -21 18 -15 0 -19 -5
-14 -19 5 -16 -1 -18 -67 -20 -44 -1 -82 -8 -95 -16 -29 -20 -63 -19 -92 2
-17 12 -28 13 -40 6 -9 -6 -39 -9 -66 -8 -28 1 -88 -1 -134 -5 -63 -6 -93 -4
-117 6 -18 8 -39 11 -48 8 -8 -3 -27 1 -43 9 -33 16 -97 11 -130 -10 -20 -13
-36 -13 -132 1 -130 19 -170 20 -208 5 -37 -15 -403 -19 -421 -5 -10 7 -16 6
-22 -4 -5 -9 -41 -16 -102 -20 -52 -4 -110 -12 -129 -18 -19 -6 -51 -14 -71
-17 -21 -3 -44 -12 -51 -19 -15 -16 -80 -36 -115 -36 -33 0 -110 -37 -121 -58
-12 -23 -81 -46 -109 -38 -25 8 -20 28 11 41 14 7 22 19 22 35 0 14 5 31 12
38 28 29 9 47 -52 48 -177 3 -387 22 -380 34 7 12 -69 30 -127 30 -60 0 -118
-16 -118 -32 0 -6 -12 -8 -26 -5 -17 3 -28 0 -31 -10 -4 -10 -15 -13 -33 -10
-49 10 -259 -35 -277 -60 -14 -18 -63 -27 -63 -11 0 6 -10 8 -22 5 -12 -3 -39
3 -61 14 -51 24 -63 24 -93 0 -45 -36 -222 -49 -567 -42 -97 2 -142 0 -152 -9
-9 -8 -27 -10 -47 -5 -66 14 -259 4 -343 -17 -54 -14 -259 -12 -250 2 12 20
-14 17 -50 -4 l-39 -24 -27 20 c-26 20 -29 20 -45 4 -11 -12 -25 -16 -43 -12
-25 6 -25 5 -7 -9 18 -14 18 -15 -8 -25 -15 -5 -35 -10 -45 -10 -9 0 -41 -7
-69 -15 -52 -16 -62 -34 -19 -36 15 0 10 -4 -15 -12 -21 -7 -46 -19 -56 -28
-14 -12 -51 -18 -143 -23 -146 -7 -213 -14 -254 -26 -16 -4 -60 -14 -97 -20
-81 -15 -141 -34 -146 -48 -2 -6 12 -14 30 -18 36 -9 178 -8 212 1 17 5 17 3
-4 -9 l-25 -15 35 -1 c19 0 30 -4 25 -9 -6 -4 -89 -14 -185 -21 -96 -7 -204
-17 -240 -22 -36 -5 -161 -13 -278 -18 -142 -6 -237 -14 -288 -26 -52 -13 -77
-15 -82 -7 -4 6 -32 14 -62 17 -30 4 -102 14 -160 22 -58 9 -154 19 -215 25
-96 8 -231 36 -182 38 9 1 17 6 17 12 0 6 -32 10 -87 10 -109 -1 -159 6 -175
27 -11 14 -10 15 7 7 32 -14 209 -19 201 -6 -4 6 -29 11 -56 11 -27 0 -52 5
-56 11 -4 7 0 9 12 6 41 -12 239 -17 254 -7 11 7 3 10 -31 10 -55 0 -158 39
-137 51 8 5 36 2 62 -6 91 -28 425 2 452 40 7 9 17 14 23 11 6 -4 24 3 41 16
27 20 29 23 13 30 -13 5 -8 7 16 7 l33 1 -22 18 c-13 10 -24 30 -25 43 -1 13
-10 29 -21 34 -21 12 -30 35 -13 35 5 0 8 4 5 9 -3 5 -15 7 -26 4 -13 -3 -22
1 -26 12 -5 12 -14 15 -32 10 -16 -4 -28 -1 -33 7 -15 24 -9 36 20 43 16 3 32
13 35 21 3 9 10 13 15 10 13 -9 41 4 41 18 0 15 63 46 95 46 13 0 26 6 29 13
5 10 7 10 12 0 7 -15 34 -17 34 -3 0 6 -6 10 -12 11 -7 0 -4 4 7 9 17 7 15 9
-10 8 -16 0 -43 -5 -60 -11z m4499 -226 c3 -4 3 -11 0 -14 -8 -8 -34 3 -34 14
0 11 27 12 34 0z m-5164 -111 c0 -5 -5 -10 -11 -10 -5 0 -7 5 -4 10 3 6 8 10
11 10 2 0 4 -4 4 -10z m2247 -26 c-3 -3 -12 -4 -19 -1 -8 3 -5 6 6 6 11 1 17
-2 13 -5z"/>
<path d="M3835 980 c-3 -5 -1 -10 4 -10 6 0 11 5 11 10 0 6 -2 10 -4 10 -3 0
-8 -4 -11 -10z"/>
<path d="M9558 933 c7 -3 16 -2 19 1 4 3 -2 6 -13 5 -11 0 -14 -3 -6 -6z"/>
<path d="M3866 911 c-4 -5 3 -7 14 -4 23 6 26 13 6 13 -8 0 -17 -4 -20 -9z"/>
<path d="M3617 876 c-12 -9 -14 -16 -7 -21 12 -7 40 11 40 26 0 13 -12 11 -33
-5z"/>
<path d="M3511 811 c-7 -5 -10 -14 -6 -20 4 -7 1 -18 -5 -26 -10 -13 -8 -15
16 -16 22 -1 19 -4 -16 -10 -25 -5 -54 -11 -65 -13 -11 -3 -29 -5 -39 -5 -14
-1 -17 -4 -9 -12 7 -7 28 -8 57 -4 58 9 60 9 64 -5 3 -8 -3 -10 -17 -5 -12 4
-21 2 -21 -4 0 -15 109 -14 140 2 38 19 36 43 -8 87 -38 39 -64 48 -91 31z"/>
<path d="M3378 773 c6 -2 18 -2 25 0 6 3 1 5 -13 5 -14 0 -19 -2 -12 -5z"/>
<path d="M5915 759 c-9 -14 0 -22 18 -17 13 2 13 5 2 15 -10 9 -16 9 -20 2z"/>
<path d="M3345 739 c-5 -7 8 -8 41 -3 64 9 68 14 11 14 -25 0 -49 -5 -52 -11z"/>
<path d="M1595 646 c47 -18 111 -22 83 -5 -10 5 -42 12 -70 15 l-53 5 40 -15z"/>
<path d="M1723 636 c12 -13 29 -14 76 -10 34 4 61 10 61 13 0 3 -34 7 -76 9
-69 3 -75 1 -61 -12z"/>
<path d="M1938 633 c7 -3 16 -2 19 1 4 3 -2 6 -13 5 -11 0 -14 -3 -6 -6z"/>
<path d="M5285 620 c-3 -5 3 -10 15 -10 12 0 18 5 15 10 -3 6 -10 10 -15 10
-5 0 -12 -4 -15 -10z"/>
<path d="M813 553 c15 -2 37 -2 50 0 12 2 0 4 -28 4 -27 0 -38 -2 -22 -4z"/>
<path d="M11870 522 c0 -18 13 -20 55 -12 38 7 38 8 8 9 -17 0 -38 4 -47 7 -9
3 -16 1 -16 -4z"/>
<path d="M4311 490 c-18 -4 -44 -19 -57 -34 -14 -14 -40 -28 -61 -31 -69 -11
-83 -15 -83 -25 0 -18 319 -1 375 20 25 10 26 12 13 28 -9 9 -14 22 -11 28 7
21 -107 30 -176 14z"/>
<path d="M3563 468 c-29 -5 -53 -14 -53 -19 0 -14 50 -9 105 11 56 21 35 24
-52 8z"/>
<path d="M295 461 c-10 -16 16 -24 94 -29 81 -5 87 6 15 26 -50 14 -101 15
-109 3z"/>
<path d="M3865 430 c-3 -5 -48 -11 -98 -12 -51 -1 -74 -3 -52 -5 22 -1 65 -8
96 -13 63 -12 109 -1 109 25 0 17 -45 21 -55 5z"/>
<path d="M302 245 c8 -8 460 -12 488 -4 14 4 -92 7 -234 8 -143 1 -257 -1
-254 -4z"/>
</g>
</svg>
